<svg width="112" height="34" viewBox="0 0 112 34" fill="none" xmlns="http://www.w3.org/2000/svg">
<g clip-path="url(#clip0_219_23366)">
<path d="M69.607 26.1156C63.1767 30.7931 53.8565 33.2887 45.8319 33.2887C34.5802 33.2887 24.4507 29.1816 16.7874 22.3507C16.1853 21.8135 16.7248 21.0815 17.4473 21.4998C25.7175 26.2487 35.9433 29.1056 46.5062 29.1056C53.6301 29.1056 61.4668 27.651 68.6725 24.6324C69.7611 24.1761 70.6715 25.336 69.607 26.1156Z" fill="gray"/>
<path d="M72.2803 23.0968C71.4614 22.0606 66.8471 22.6072 64.7759 22.8497C64.1449 22.9257 64.0486 22.3838 64.6169 21.994C68.2921 19.4413 74.3225 20.1781 75.0258 21.0338C75.729 21.8942 74.8427 27.86 71.3892 30.7074C70.8593 31.1447 70.3536 30.9118 70.5896 30.3318C71.3651 28.4209 73.1039 24.1379 72.2803 23.0968Z" fill="gray"/>
<path d="M64.9203 3.97311V1.49173C64.9203 1.1162 65.2093 0.864258 65.5561 0.864258H76.8127C77.1739 0.864258 77.463 1.12095 77.463 1.49173V3.61659C77.4581 3.97311 77.1547 4.43897 76.6152 5.17578L70.7822 13.3948C72.9497 13.3425 75.2377 13.661 77.2029 14.7543C77.646 15.0015 77.7664 15.3627 77.8001 15.7193V18.367C77.8001 18.7283 77.3955 19.1514 76.9716 18.9327C73.5085 17.1406 68.9085 16.9457 65.0793 18.9517C64.6891 19.1609 64.2797 18.7426 64.2797 18.3813V15.8666C64.2797 15.4626 64.2845 14.7733 64.694 14.1601L71.4517 4.59584H65.5706C65.2093 4.59584 64.9203 4.3439 64.9203 3.97311Z" fill="gray"/>
<path d="M23.8583 19.4557H20.4336C20.1061 19.432 19.846 19.1895 19.8219 18.8805V1.53465C19.8219 1.18764 20.1157 0.911926 20.4818 0.911926H23.6752C24.0076 0.926178 24.2725 1.17813 24.2966 1.49187V3.75934H24.3592C25.1925 1.56792 26.7579 0.545898 28.8676 0.545898C31.011 0.545898 32.3501 1.56792 33.3134 3.75934C34.1419 1.56792 36.0252 0.545898 38.0434 0.545898C39.4787 0.545898 41.049 1.13059 42.0075 2.44259C43.0912 3.90194 42.8697 6.02205 42.8697 7.88071L42.8648 18.8283C42.8648 19.1753 42.571 19.4557 42.205 19.4557H38.7851C38.4431 19.432 38.1686 19.161 38.1686 18.8283V9.63479C38.1686 8.90273 38.236 7.07735 38.0723 6.38332C37.817 5.21869 37.0511 4.89069 36.0589 4.89069C35.2304 4.89069 34.3634 5.43736 34.0118 6.31202C33.6602 7.18668 33.6939 8.65079 33.6939 9.63479V18.8283C33.6939 19.1753 33.4001 19.4557 33.034 19.4557H29.6142C29.2674 19.432 28.9977 19.161 28.9977 18.8283L28.9928 9.63479C28.9928 7.70007 29.3156 4.85266 26.8831 4.85266C24.4218 4.85266 24.5182 7.62877 24.5182 9.63479V18.8283C24.5182 19.1753 24.2243 19.4557 23.8583 19.4557Z" fill="gray"/>
<path d="M87.1541 0.545898C92.2357 0.545898 94.986 4.85266 94.986 10.3288C94.986 15.6196 91.9467 19.817 87.1541 19.817C82.1641 19.817 79.4474 15.5102 79.4474 10.1434C79.4474 4.74333 82.1978 0.545898 87.1541 0.545898ZM87.183 4.08734C84.6591 4.08734 84.5001 7.48141 84.5001 9.59676C84.5001 11.7169 84.4664 16.2423 87.1541 16.2423C89.8081 16.2423 89.9333 12.5915 89.9333 10.3668C89.9333 8.90273 89.8707 7.15341 89.4228 5.76535C89.0374 4.55794 88.2716 4.08734 87.183 4.08734Z" fill="gray"/>
<path d="M101.575 19.4557H98.165C97.823 19.432 97.5485 19.161 97.5485 18.8283L97.5437 1.4776C97.5726 1.15911 97.8567 0.911926 98.2035 0.911926H101.378C101.676 0.926178 101.922 1.12584 101.989 1.39679V4.0493H102.052C103.011 1.67726 104.354 0.545898 106.719 0.545898C108.256 0.545898 109.754 1.09256 110.717 2.58995C111.613 3.978 111.613 6.31202 111.613 7.99004V18.9091C111.575 19.2133 111.29 19.4557 110.953 19.4557H107.519C107.206 19.432 106.946 19.2038 106.912 18.9091V9.48743C106.912 7.59074 107.134 4.81463 104.769 4.81463C103.935 4.81463 103.17 5.36605 102.789 6.20269C102.307 7.26274 102.245 8.31804 102.245 9.48743V18.8283C102.24 19.1753 101.941 19.4557 101.575 19.4557Z" fill="gray"/>
<path d="M55.9469 11.1701V10.438C53.4711 10.438 50.8557 10.9609 50.8557 13.8416C50.8557 15.301 51.6215 16.2897 52.9365 16.2897C53.8998 16.2897 54.762 15.705 55.3063 14.7543C55.9806 13.5849 55.9469 12.4868 55.9469 11.1701ZM59.4004 19.4081C59.174 19.6077 58.8465 19.622 58.5912 19.4889C57.4545 18.5572 57.2522 18.1246 56.626 17.2357C54.7475 19.1276 53.4181 19.6933 50.9809 19.6933C48.1005 19.6933 45.856 17.9392 45.856 14.4263C45.856 11.6835 47.3636 9.8153 49.507 8.90261C51.3662 8.09449 53.9624 7.95189 55.9469 7.72847V7.29114C55.9469 6.48777 56.0095 5.53705 55.5326 4.84303C55.1136 4.22031 54.314 3.96361 53.6108 3.96361C52.3055 3.96361 51.1398 4.62436 50.8557 5.9934C50.7979 6.29763 50.5715 6.59711 50.2632 6.61137L46.9397 6.2596C46.6603 6.19781 46.3521 5.97439 46.4291 5.55132C47.195 1.57731 50.8316 0.379395 54.0876 0.379395C55.7542 0.379395 57.9313 0.816726 59.2463 2.06217C60.9129 3.59758 60.7539 5.64639 60.7539 7.87583V13.1428C60.7539 14.7258 61.4186 15.4198 62.0448 16.2754C62.2663 16.5797 62.3145 16.9457 62.0351 17.1739C61.3367 17.7491 60.094 18.8186 59.4101 19.4176L59.4004 19.4081Z" fill="gray"/>
<path d="M11.0508 11.1701V10.438C8.57499 10.438 5.95954 10.9609 5.95954 13.8416C5.95954 15.301 6.72539 16.2897 8.04034 16.2897C9.00368 16.2897 9.86586 15.705 10.4101 14.7543C11.0845 13.5849 11.0508 12.4868 11.0508 11.1701ZM14.5043 19.4081C14.2779 19.6077 13.9504 19.622 13.6951 19.4889C12.5584 18.5572 12.3561 18.1246 11.7299 17.2357C9.85141 19.1276 8.52201 19.6933 6.08477 19.6933C3.2044 19.6933 0.959839 17.9392 0.959839 14.4263C0.959839 11.6835 2.46746 9.8153 4.61087 8.90261C6.47011 8.09449 9.06629 7.95189 11.0508 7.72847V7.29114C11.0508 6.48777 11.1134 5.53705 10.6365 4.84303C10.2175 4.22031 9.41791 3.96361 8.71467 3.96361C7.40936 3.96361 6.24372 4.62436 5.95954 5.9934C5.90174 6.29763 5.67536 6.59711 5.36709 6.61137L2.04359 6.2596C1.76422 6.19781 1.45595 5.97439 1.53302 5.55132C2.29887 1.57731 5.93546 0.379395 9.19153 0.379395C10.8581 0.379395 13.0352 0.816726 14.3502 2.06217C16.0167 3.59758 15.8578 5.64639 15.8578 7.87583V13.1428C15.8578 14.7258 16.5225 15.4198 17.1487 16.2754C17.3702 16.5797 17.4184 16.9457 17.139 17.1739C16.4406 17.7491 15.1979 18.8186 14.5139 19.4176L14.5043 19.4081Z" fill="gray"/>
</g>
<defs>
<clipPath id="clip0_219_23366">
<rect width="110.786" height="33" fill="gray" transform="translate(0.892944 0.334961)"/>
</clipPath>
</defs>
</svg>
