<svg width="106" height="43" viewBox="0 0 106 43" fill="none" xmlns="http://www.w3.org/2000/svg">
<path d="M26.5779 22.4139V0.834961H31.8279V14.1069C34.4091 11.0236 37.9616 10.1332 41.4616 10.1332C47.3241 10.1332 53.8341 14.0981 53.8341 22.6551C53.8341 23.6771 53.7685 24.6595 53.5716 25.585C54.6216 21.4051 59.1454 19.8613 66.2416 19.6902C68.4729 19.6113 71.0323 19.6113 73.0666 19.6113V19.0192C73.0666 15.1376 70.6341 13.563 66.3729 13.563C63.2229 13.563 60.926 14.8788 60.6635 17.1157H55.0854C55.6804 11.4578 61.6479 10.0104 66.8366 10.0104C71.4916 10.0104 75.5648 11.1946 77.4023 14.4841L75.4948 10.7999H81.6635L90.6541 28.892L99.6448 10.7955H105.083L88.8079 42.835H82.9191L87.6004 33.8876L77.4066 14.6771C77.9754 15.7955 78.2816 17.1113 78.2816 18.756V29.5455C78.2816 31.063 78.3254 32.5718 78.4566 33.9534H73.5829C73.4505 32.8399 73.3833 31.7195 73.3816 30.5981C70.7435 33.8174 67.6066 34.8086 63.2316 34.8086C56.7566 34.8086 53.2916 31.3876 53.2916 27.3744C53.2916 26.7165 53.3573 26.1288 53.4535 25.5981C52.141 31.063 47.5035 34.7472 41.3479 34.7472C37.5416 34.7472 33.9366 33.3657 31.7229 30.6683C31.7229 31.7209 31.6573 32.835 31.5479 33.8876H26.3854C26.4729 32.1771 26.5604 30.1376 26.5604 28.4271V23.8218H5.42914C5.71351 28.6244 9.00789 31.4534 13.536 31.4534C16.6773 31.4534 19.4641 30.1376 20.396 27.3744H25.821C24.771 33.0323 18.7773 34.9402 13.6148 34.9402C4.23914 35.0323 0.0828857 29.8262 0.0828857 22.8525C0.0828857 15.1595 4.37914 10.0893 13.7154 10.0893C21.1004 10.0893 26.5341 13.9753 26.5779 22.3964V22.4183V22.4139ZM66.5523 23.2165C61.7616 23.3657 58.8085 24.2385 58.8085 27.3832C58.8085 29.4227 60.3835 31.6376 64.5179 31.6376C70.0304 31.6376 72.9835 28.6113 72.9835 23.6814V23.1113C71.0148 23.1113 68.6523 23.1376 66.491 23.2078H66.5435L66.5523 23.2165ZM40.0398 31.4402C44.896 31.4402 48.2473 27.9051 48.2473 22.5806C48.2473 17.256 44.8873 13.7209 39.9654 13.7209C35.1091 13.7209 31.6966 17.256 31.6966 22.5806C31.6966 27.9051 35.0435 31.4402 39.8998 31.4402H40.031H40.0398ZM21.0085 20.4139C20.816 15.4797 17.2723 13.6332 13.4616 13.6332C9.33164 13.6332 6.05039 15.7122 5.52101 20.4139H21.0085Z" fill="gray"/>
</svg>
