<svg width="144" height="29" viewBox="0 0 144 29" fill="none" xmlns="http://www.w3.org/2000/svg">
<g clip-path="url(#clip0_219_23438)">
<path d="M11.9218 25.7675C4.87393 25.7675 0.524414 19.8473 0.524414 13.4237C0.524414 6.64771 4.41079 1.23096 11.8412 1.23096C17.3184 1.23096 21.5269 4.50316 21.9095 9.08425H17.0465C16.8049 6.93969 14.4992 5.19788 11.8714 5.19788C8.03538 5.19788 5.45789 8.21837 5.45789 13.6452C5.45789 17.4309 7.3608 21.6999 11.8211 21.6999C15.9793 21.6999 17.4191 19.6862 17.4191 16.4442H12.3245V12.6283H21.8995V16.4442C21.9196 21.9616 19.5938 25.7675 11.9218 25.7675Z" fill="gray"/>
<path d="M24.6884 24.9922V1.73438H29.199V24.9922H24.6884Z" fill="gray"/>
<path d="M31.3133 15.1454C31.5535 13.2251 32.4242 11.4388 33.789 10.0667C35.1539 8.69463 36.9355 7.81437 38.8545 7.564C44.8955 7.02031 48.6711 10.6449 48.6711 16.4644C48.6711 21.861 45.3184 25.4252 40.0023 25.4252C34.0519 25.4453 30.7294 21.1562 31.3133 15.1454ZM44.1303 16.4946C44.1303 13.0311 42.7409 11.3396 40.0023 11.3396C37.2637 11.3396 35.8743 13.0311 35.8743 16.4946C35.8743 19.9581 37.2738 21.6899 40.0023 21.6899C42.7308 21.6899 44.1303 19.9581 44.1303 16.4946Z" fill="gray"/>
<path d="M50.866 24.9922V1.73438H55.286V10.1918C55.8328 9.36004 56.5811 8.68017 57.4613 8.21542C58.3415 7.75068 59.325 7.51617 60.3202 7.53373C64.72 7.53373 67.3177 11.1785 67.2975 16.3334C67.2975 22.0724 64.2065 25.4755 59.9174 25.4755C58.9726 25.5286 58.0311 25.3222 57.1952 24.8785C56.3593 24.4348 55.6607 23.7708 55.1753 22.9584V25.0224H50.866V24.9922ZM62.7768 16.6254C62.7768 13.1418 61.5384 11.3698 58.9106 11.3698C56.2828 11.3698 55.135 13.1921 55.135 16.9275C55.135 19.7969 56.7963 21.8106 58.9408 21.8106C61.0854 21.8106 62.7768 19.656 62.7768 16.6254Z" fill="gray"/>
<path d="M80.6078 25.0223C80.4662 24.5229 80.3784 24.0099 80.3461 23.4919C79.6743 24.1678 78.8688 24.6961 77.9811 25.0428C77.0934 25.3895 76.1432 25.5472 75.1911 25.5055C71.3047 25.5055 69.5126 23.6026 69.5126 20.8338C69.5126 15.9306 72.8049 15.3667 77.3356 14.7929C79.5909 14.4707 80.2152 14.0377 80.2152 12.8597C80.2152 11.6817 79.1077 11.0877 77.3356 11.0877C75.322 11.0877 74.4662 12.0945 74.2547 13.6149H70.0462C70.1267 10.0708 72.0598 7.63428 77.5269 7.63428C82.994 7.63428 84.7963 10.0406 84.7963 14.3398V25.0223H80.6078ZM80.3159 16.6756C79.8628 17.1388 79.0875 17.3804 77.4162 17.6825C74.8689 18.1657 74.0433 18.8907 74.0433 20.3405C74.0433 21.6192 74.7884 22.2434 76.208 22.2434C77.2301 22.2738 78.2236 21.9032 78.9761 21.2109C79.7286 20.5186 80.1806 19.5594 80.2353 18.5383L80.3159 16.6756Z" fill="gray"/>
<path d="M98.8013 25.0223V14.6922C98.8013 12.0644 98.0462 11.3395 95.9016 11.3395C93.5356 11.3395 92.4079 12.6584 92.4079 15.256V25.0223H87.9074V7.9867H92.1965V10.4836C92.7268 9.51071 93.5292 8.71348 94.5056 8.18953C95.4819 7.66558 96.5899 7.43765 97.6938 7.53363C98.3841 7.48287 99.0776 7.5687 99.7347 7.78621C100.392 8.00372 101 8.34864 101.523 8.80123C102.047 9.25383 102.476 9.80523 102.787 10.4239C103.097 11.0426 103.282 11.7163 103.332 12.4067C103.352 12.6782 103.352 12.9508 103.332 13.2222V25.0223H98.8013Z" fill="gray"/>
<path d="M116.31 18.6391C116.199 20.5118 115.374 21.5589 113.682 21.5589C111.991 21.5589 111.075 20.3004 111.075 18.1559V11.1785H118.052V7.56398H111.105V3.40576H106.655V18.6391C106.655 22.3141 108.668 25.5057 113.602 25.5057C118.404 25.5057 120.488 22.2839 120.488 18.6895L116.31 18.6391Z" fill="gray"/>
<path d="M125.855 0.475769C125.614 0.338364 125.328 0.300411 125.059 0.369965C124.791 0.43952 124.559 0.611106 124.415 0.848296C124.273 1.09166 124.234 1.38118 124.304 1.65376L126.318 4.67426C128.233 7.53586 129.255 10.9016 129.255 14.3449C129.255 17.7882 128.233 21.1539 126.318 24.0155L124.304 27.036C124.263 27.1642 124.247 27.2995 124.258 27.4338C124.27 27.5682 124.308 27.6989 124.371 27.8181C124.434 27.9374 124.52 28.0428 124.625 28.1281C124.729 28.2134 124.85 28.2768 124.979 28.3147C125.113 28.3594 125.255 28.3727 125.395 28.3535C125.534 28.3343 125.668 28.2831 125.784 28.2039L142.699 15.4373C142.975 15.2325 143.158 14.9269 143.209 14.5873C143.26 14.2476 143.175 13.9016 142.971 13.625C142.892 13.5204 142.801 13.4258 142.699 13.3431L125.855 0.475769Z" fill="gray"/>
</g>
<defs>
<clipPath id="clip0_219_23438">
<rect width="142.698" height="28" fill="gray" transform="translate(0.524414 0.334961)"/>
</clipPath>
</defs>
</svg>
