<svg width="110" height="46" viewBox="0 0 110 46" fill="none" xmlns="http://www.w3.org/2000/svg">
<g clip-path="url(#clip0_219_23407)">
<path d="M29.9309 25.0698H30.9348V44.9821H27.1345V27.4878C27.1345 26.9188 28.3534 25.0698 29.9309 25.0698Z" fill="gray"/>
<path d="M50.725 29.479C48.8607 29.479 47.4266 30.2612 46.4228 31.8258V25.0698H45.9926C44.1283 25.0698 43.1245 26.0655 42.6225 26.9189V26.7766V38.2261C42.6225 42.7064 44.9887 44.9821 49.7211 44.9821C54.4535 44.911 56.7481 42.3509 56.7481 37.3728C56.7481 32.1814 54.7404 29.6213 50.725 29.479ZM49.5777 41.7108C47.4266 41.7108 46.3511 40.1463 46.4228 37.1594C46.5662 34.2437 47.57 32.8214 49.6494 32.8214C51.7288 32.8214 52.7327 34.2437 52.8761 37.1594C52.8761 40.2174 51.7288 41.7108 49.5777 41.7108Z" fill="gray"/>
<path d="M58.9708 37.1593C59.1142 32.3235 61.4804 29.6211 66.5713 29.6211H67.7186V33.5324H65.9261C63.7749 33.5324 62.8428 34.8836 62.8428 37.0882V44.9109H58.9708V37.1593Z" fill="gray"/>
<path d="M73.7417 41.0704C74.387 41.6394 75.2475 41.9239 76.3947 41.9239C77.1835 41.9239 77.9005 41.7105 78.4742 41.2838C79.0478 40.8571 79.4063 40.4304 79.5497 40.0037H83.1349C82.5612 41.7816 81.7008 42.9906 80.4818 43.7729C79.2628 44.5551 77.9005 44.9107 76.1796 44.9107C75.0323 44.9107 73.9568 44.6974 73.0246 44.3418C72.0925 43.9862 71.3038 43.4173 70.6585 42.7772C70.0131 42.0661 69.5112 41.2838 69.1527 40.3593C68.7942 39.4348 68.6507 38.3681 68.6507 37.2303C68.6507 36.1636 68.8659 35.0968 69.2244 34.1723C69.5829 33.2478 70.0848 32.3944 70.7301 31.7544C71.3755 31.0432 72.1642 30.5455 73.0964 30.1188C74.0285 29.6921 75.0323 29.5498 76.1796 29.5498C77.3985 29.5498 78.5458 29.7632 79.4779 30.261C80.4101 30.7588 81.1989 31.3988 81.7725 32.181C82.3461 32.9633 82.7763 33.8878 83.0631 34.9545C83.3499 35.9502 83.4216 37.088 83.3499 38.2258H72.6661C72.8095 39.577 73.168 40.5015 73.7417 41.0704ZM78.3307 33.39C77.8288 32.8922 77.1118 32.6078 76.1079 32.6078C75.4626 32.6078 74.8889 32.75 74.4587 32.9634C74.0285 33.1767 73.67 33.4612 73.4549 33.7456C73.1681 34.1012 73.0247 34.3857 72.8812 34.7413C72.7378 35.0968 72.7378 35.4523 72.6661 35.7368H79.2629C79.1912 34.6701 78.8326 33.8879 78.3307 33.39Z" fill="gray"/>
<path d="M38.8222 25.0698H35.0219V28.4834H38.8222V25.0698Z" fill="gray"/>
<path d="M38.8222 30.1904H35.0219V44.9112H38.8222V30.1904Z" fill="gray"/>
<path d="M104.359 17.1763C103.714 17.8874 102.853 18.3141 101.778 18.3141C100.702 18.3141 99.8419 17.8874 99.1965 17.1763C98.5512 16.4651 98.3361 15.2562 98.3361 13.8339C98.3361 12.3405 98.6229 11.2738 99.1965 10.5626C99.8419 9.85147 100.702 9.42471 101.778 9.42471C102.853 9.42471 103.714 9.85147 104.359 10.5626C105.005 11.2738 105.22 12.4827 105.22 13.8339C105.22 15.1851 105.005 16.3229 104.359 17.1763ZM107.371 8.35798C106.223 6.86456 104.288 6.01123 101.778 6.01123C99.34 6.01123 97.3323 6.72233 96.185 8.35798C95.0378 9.8514 94.3207 11.7005 94.3207 13.7628C94.3207 15.8963 94.9661 17.7452 96.185 19.1675C97.3323 20.661 99.2683 21.4432 101.778 21.4432C104.216 21.4432 106.223 20.7321 107.371 19.1675C108.518 17.6741 109.235 15.8252 109.235 13.7628C109.307 11.7716 108.661 9.92252 107.371 8.35798Z" fill="gray"/>
<path d="M88.7277 17.1762C88.2258 17.8874 87.3653 18.314 86.2898 18.314C85.2142 18.314 84.3538 17.8874 83.9236 17.1762C83.4217 16.3228 83.2066 15.2561 83.2066 13.8338C83.2066 12.5538 83.4217 11.5581 83.9236 10.7758C84.4256 9.92246 85.2143 9.49583 86.3616 9.49583C87.0786 9.49583 87.7239 9.7091 88.2975 10.1358C89.158 10.8469 89.6599 12.2693 89.6599 14.1183C89.4448 15.3984 89.3014 16.4651 88.7277 17.1762ZM93.1734 1.67315C93.1734 1.67315 89.3014 1.24642 89.3014 4.30438V8.35791C88.8712 7.71787 88.3692 7.22012 87.5805 6.72231C86.9352 6.29562 86.0747 6.22445 85.2142 6.22445C83.2782 6.22445 81.7725 6.93561 80.5535 8.35791C79.4063 9.7091 78.8327 11.7715 78.8327 14.3316C78.8327 16.4651 79.3346 18.3141 80.5535 19.5231C81.7008 20.8742 83.9954 21.4431 86.003 21.4431C93.1017 21.4431 92.9582 15.4694 92.9582 15.4694L93.1734 1.67315Z" fill="gray"/>
<path d="M74.1003 15.3983C74.1003 16.6784 73.6701 17.5318 73.0247 18.0296C72.3077 18.4563 71.519 18.7408 70.7303 18.7408C70.2283 18.7408 69.7981 18.6696 69.4396 18.314C69.081 17.9584 68.9377 17.6029 68.9377 16.9629C68.9377 16.2517 69.2245 15.6828 69.7981 15.3272C70.0849 15.1139 70.7302 14.9005 71.519 14.8294L72.3795 14.6161C72.8097 14.5449 73.0965 14.4027 73.455 14.4027C73.6701 14.3316 73.957 14.1894 74.1721 14.1183L74.1003 15.3983ZM76.0363 7.07785C74.7457 6.43782 73.3833 6.15332 71.7341 6.15332C69.2962 6.15332 67.5036 6.79341 66.4997 8.07348C65.8544 8.92687 65.5676 9.92243 65.4242 11.1314H69.081C69.1528 10.6336 69.3679 10.2069 69.583 9.85137C70.0132 9.42467 70.6585 9.21131 71.519 9.21131C72.3794 9.21131 72.8813 9.28244 73.3833 9.49579C73.8135 9.70913 74.0286 10.1358 74.0286 10.7758C74.0286 11.2736 73.7418 11.6292 73.1682 11.8425C72.8814 11.9137 72.3078 12.0559 71.6624 12.127L70.3717 12.1981C68.866 12.4115 67.7905 12.696 67.0017 13.1226C65.6394 13.8338 64.9223 15.2561 64.9223 16.9629C64.9223 18.3141 65.3525 19.3808 66.2129 20.1631C67.0734 20.8742 68.149 21.2298 69.5113 21.3009C77.9006 21.5854 77.8289 16.8918 77.8289 15.9673V10.5625C77.9006 8.99798 77.327 7.71789 76.0363 7.07785Z" fill="gray"/>
<path d="M57.0349 9.4246C57.967 9.4246 58.6841 9.70912 59.186 10.278C59.4728 10.7047 59.6879 11.2025 59.6879 11.7714H63.775C63.5599 9.7091 62.8429 8.21568 61.6239 7.50453C60.4767 6.65114 58.8274 6.3667 56.8914 6.3667C54.5969 6.3667 52.8043 7.00675 51.5137 8.42906C50.223 9.85136 49.5777 11.7715 49.5777 14.1894C49.5777 16.4651 50.0797 18.1718 51.2986 19.523C52.4459 20.8742 54.3102 21.5854 56.7481 21.5854C59.186 21.5854 61.0503 20.732 62.341 19.1674C63.058 18.1007 63.4882 17.0339 63.6316 15.825H59.5445C59.4728 16.5361 59.2577 17.1762 58.8275 17.674C58.3973 18.1007 57.7519 18.3852 56.7481 18.3852C55.4574 18.3852 54.4536 17.7451 54.0951 16.5361C53.88 15.8961 53.6648 15.0427 53.6648 13.976C53.6648 12.9093 53.7366 11.9137 54.0951 11.3448C54.7404 10.0647 55.6008 9.4246 57.0349 9.4246Z" fill="gray"/>
<path d="M48.5023 6.22461C39.9696 6.22461 40.5433 13.6917 40.5433 13.6917V21.23H44.4153V14.1896C44.4153 13.0517 44.487 12.1272 44.8455 11.6294C45.3474 10.7049 46.3512 10.1359 47.9287 10.1359C48.0004 10.1359 48.1439 10.1359 48.359 10.1359C48.5741 10.1359 48.7891 10.136 49.0042 10.2071V6.36689C48.7891 6.36689 48.7175 6.36689 48.7175 6.36689C48.6458 6.22466 48.6457 6.22461 48.5023 6.22461Z" fill="gray"/>
<path d="M29.2857 10.1356C29.7876 9.63776 30.5764 9.28222 31.5802 9.28222C32.4407 9.28222 33.2294 9.49556 33.8747 9.99337C34.52 10.4912 34.8069 11.2734 34.8069 12.269H28.2101C28.4252 11.4156 28.712 10.7045 29.2857 10.1356ZM34.4484 17.176C34.3767 17.3893 34.1615 17.6027 33.9464 17.6739C33.4445 18.1005 32.6557 18.1716 31.7953 18.1716C30.9348 18.1716 30.2896 18.1005 29.716 17.6739C28.7838 17.176 28.2101 16.0381 28.2101 14.687H38.8223C38.8223 13.4069 38.8223 12.4113 38.7506 11.8423C38.5355 10.7045 38.2487 9.70893 37.6033 8.85554C36.958 7.93104 36.0975 7.14878 35.1654 6.72209C34.2333 6.29539 33.0143 6.08203 31.7236 6.08203C29.5725 6.08203 27.8516 6.72209 26.561 8.14439C25.2703 9.49558 24.4816 11.4157 24.4816 13.9047C24.4816 16.536 25.1986 18.5272 26.776 19.665C28.2818 20.8029 30.0027 21.514 31.9387 21.514C34.305 21.514 36.1692 20.8029 37.3882 19.3805C38.1052 18.6694 38.5355 17.8872 38.6789 17.1049L34.4484 17.176Z" fill="gray"/>
<path d="M22.8323 21.1584H19.2472V12.4113C19.2472 11.5579 19.0321 9.77999 16.6658 9.77999C15.1601 9.77999 14.0129 10.8468 14.0129 12.4113V21.1584H10.4277V12.4113C10.4277 11.5579 10.2126 9.77999 7.84638 9.77999C6.3406 9.77999 5.26498 10.8468 5.26498 12.4113V21.1584H1.67981V12.4824C1.67981 8.85553 4.04602 6.08203 7.7746 6.08203C9.63889 6.08203 11.1447 6.7932 12.2203 8.14439C13.2958 6.86432 14.8016 6.08203 16.6658 6.08203C20.5378 6.08203 22.7606 8.71329 22.7606 12.4824L22.8323 21.1584Z" fill="gray"/>
</g>
<defs>
<clipPath id="clip0_219_23407">
<rect width="109.068" height="45" fill="gray" transform="translate(0.841248 0.834961)"/>
</clipPath>
</defs>
</svg>
