<svg width="160" height="35" viewBox="0 0 160 35" fill="none" xmlns="http://www.w3.org/2000/svg">
<g clip-path="url(#clip0_219_23401)">
<path d="M66.5847 7.13513V27.5351H63.0379V11.5268H62.9906L56.6537 27.5351H54.2892L47.8104 11.5268H47.7632V27.5351H44.5001V7.13513H49.6075L55.4715 22.2462H55.5661L61.7611 7.13513H66.5847ZM69.5167 8.69347C69.5167 8.1268 69.7059 7.65458 70.1315 7.2768C70.5571 6.89902 71.03 6.71013 71.5975 6.71013C72.2123 6.71013 72.7325 6.89902 73.1108 7.2768C73.4891 7.65458 73.7256 8.1268 73.7256 8.69347C73.7256 9.26013 73.5364 9.73236 73.1108 10.1101C72.6852 10.4879 72.2123 10.6768 71.5975 10.6768C70.9827 10.6768 70.5098 10.4879 70.1315 10.1101C69.7532 9.68513 69.5167 9.21291 69.5167 8.69347ZM73.3472 12.8962V27.5351H69.895V12.8962H73.3472ZM83.7984 25.0324C84.3186 25.0324 84.8861 24.9379 85.5008 24.6546C86.1156 24.4185 86.6831 24.0879 87.2033 23.7101V26.9212C86.6358 27.2518 86.021 27.4879 85.3117 27.6296C84.6023 27.7712 83.8457 27.8657 82.9945 27.8657C80.8191 27.8657 79.0694 27.2046 77.7452 25.8351C76.3738 24.4657 75.7117 22.7185 75.7117 20.6407C75.7117 18.2796 76.4211 16.3435 77.7925 14.8324C79.1639 13.3212 81.1028 12.5657 83.6565 12.5657C84.3186 12.5657 84.9807 12.6601 85.5954 12.8018C86.2575 12.9435 86.7777 13.1796 87.156 13.3685V16.674C86.6358 16.2962 86.0683 15.9657 85.5481 15.7768C84.9807 15.5879 84.4132 15.4462 83.8457 15.4462C82.4743 15.4462 81.3866 15.8712 80.5354 16.7685C79.6841 17.6657 79.3058 18.8462 79.3058 20.3574C79.3058 21.8212 79.7314 23.0018 80.5354 23.8046C81.3393 24.6074 82.427 25.0324 83.7984 25.0324ZM96.9924 12.6601C97.2761 12.6601 97.5126 12.6601 97.749 12.7074C97.9855 12.7546 98.1747 12.8018 98.3165 12.849V16.3435C98.1274 16.2018 97.8909 16.0601 97.5126 15.9657C97.1343 15.8712 96.7559 15.7768 96.2358 15.7768C95.3845 15.7768 94.6752 16.1546 94.1077 16.8629C93.5402 17.5712 93.2092 18.6574 93.2092 20.1685V27.5351H89.757V12.8962H93.2092V15.2101H93.2565C93.5875 14.4074 94.0604 13.7935 94.6752 13.3212C95.3372 12.8962 96.0939 12.6601 96.9924 12.6601ZM98.5057 20.4518C98.5057 18.0435 99.215 16.1074 100.539 14.6907C101.911 13.274 103.802 12.5657 106.214 12.5657C108.484 12.5657 110.281 13.2268 111.558 14.5962C112.835 15.9657 113.497 17.8074 113.497 20.1212C113.497 22.4824 112.787 24.3712 111.463 25.7879C110.092 27.2046 108.247 27.9129 105.883 27.9129C103.613 27.9129 101.816 27.2518 100.492 25.9296C99.1678 24.5601 98.5057 22.7185 98.5057 20.4518ZM102.1 20.3101C102.1 21.8212 102.431 23.0018 103.14 23.8046C103.849 24.6074 104.843 25.0324 106.119 25.0324C107.349 25.0324 108.342 24.6546 109.004 23.8046C109.666 23.0018 109.997 21.8212 109.997 20.2157C109.997 18.6574 109.666 17.4768 109.004 16.6268C108.342 15.824 107.349 15.399 106.167 15.399C104.89 15.399 103.944 15.824 103.235 16.674C102.431 17.5712 102.1 18.7518 102.1 20.3101ZM118.651 16.7685C118.651 17.2407 118.793 17.6657 119.124 17.949C119.455 18.2324 120.117 18.5629 121.205 18.9879C122.576 19.5546 123.57 20.1685 124.09 20.8296C124.657 21.5379 124.941 22.3407 124.941 23.3324C124.941 24.7018 124.421 25.7879 123.333 26.6379C122.293 27.4879 120.827 27.8657 119.03 27.8657C118.415 27.8657 117.753 27.7712 116.996 27.6296C116.24 27.4879 115.625 27.299 115.105 27.0629V23.6629C115.719 24.0879 116.429 24.4657 117.138 24.7018C117.847 24.9379 118.509 25.0796 119.124 25.0796C119.881 25.0796 120.496 24.9851 120.827 24.749C121.205 24.5129 121.394 24.1824 121.394 23.6629C121.394 23.1907 121.205 22.8129 120.827 22.4351C120.448 22.1046 119.692 21.7268 118.651 21.3018C117.375 20.7824 116.476 20.1685 115.956 19.5074C115.436 18.8462 115.152 17.9962 115.152 16.9574C115.152 15.6351 115.672 14.549 116.712 13.699C117.753 12.849 119.124 12.424 120.779 12.424C121.3 12.424 121.867 12.4712 122.482 12.6129C123.097 12.7546 123.664 12.8962 124.09 13.0379V16.3907C123.617 16.1074 123.097 15.824 122.482 15.5879C121.867 15.3518 121.252 15.2574 120.685 15.2574C120.023 15.2574 119.503 15.399 119.172 15.6351C118.841 15.9657 118.651 16.2962 118.651 16.7685ZM126.407 20.4518C126.407 18.0435 127.116 16.1074 128.44 14.6907C129.812 13.274 131.704 12.5657 134.115 12.5657C136.385 12.5657 138.182 13.2268 139.459 14.5962C140.736 15.9657 141.398 17.8074 141.398 20.1212C141.398 22.4824 140.689 24.3712 139.365 25.7879C137.993 27.2046 136.149 27.9129 133.784 27.9129C131.514 27.9129 129.717 27.2518 128.393 25.9296C127.116 24.5601 126.407 22.7185 126.407 20.4518ZM130.001 20.3101C130.001 21.8212 130.332 23.0018 131.041 23.8046C131.751 24.6074 132.744 25.0324 134.021 25.0324C135.25 25.0324 136.243 24.6546 136.905 23.8046C137.568 23.0018 137.899 21.8212 137.899 20.2157C137.899 18.6574 137.568 17.4768 136.905 16.6268C136.243 15.824 135.25 15.399 134.068 15.399C132.791 15.399 131.845 15.824 131.136 16.674C130.379 17.5712 130.001 18.7518 130.001 20.3101ZM152.89 15.7296H147.735V27.5351H144.235V15.7296H141.776V12.8962H144.235V10.8657C144.235 9.35458 144.756 8.07958 145.749 7.08791C146.742 6.09625 148.019 5.62402 149.579 5.62402C150.005 5.62402 150.383 5.67125 150.714 5.67125C151.045 5.67125 151.329 5.76569 151.565 5.86013V8.83513C151.471 8.78791 151.234 8.69347 150.951 8.59902C150.667 8.50458 150.336 8.45736 149.958 8.45736C149.248 8.45736 148.681 8.69347 148.302 9.11847C147.924 9.54347 147.735 10.2518 147.735 11.1018V12.849H152.89V9.54347L156.342 8.50458V12.849H159.841V15.6824H156.342V22.5296C156.342 23.4268 156.531 24.0407 156.815 24.4185C157.146 24.7962 157.666 24.9851 158.375 24.9851C158.564 24.9851 158.801 24.9379 159.085 24.8435C159.368 24.749 159.605 24.6546 159.794 24.5129V27.3462C159.558 27.4879 159.226 27.5824 158.706 27.6768C158.186 27.7712 157.713 27.8185 157.193 27.8185C155.727 27.8185 154.639 27.4407 153.93 26.6851C153.221 25.9296 152.842 24.749 152.842 23.1907L152.89 15.7296Z" fill="gray"/>
<path d="M16.3624 0.334961H0.189087V16.485H16.3624V0.334961Z" fill="gray"/>
<path d="M34.2381 0.334961H18.0648V16.485H34.2381V0.334961Z" fill="gray"/>
<path d="M16.3624 18.1851H0.189087V34.3351H16.3624V18.1851Z" fill="gray"/>
<path d="M34.2381 18.1851H18.0648V34.3351H34.2381V18.1851Z" fill="gray"/>
</g>
<defs>
<clipPath id="clip0_219_23401">
<rect width="159.652" height="34" fill="gray" transform="translate(0.189087 0.334961)"/>
</clipPath>
</defs>
</svg>
