<svg width="150" height="29" viewBox="0 0 150 29" fill="none" xmlns="http://www.w3.org/2000/svg">
<g clip-path="url(#clip0_219_23425)">
<path fill-rule="evenodd" clip-rule="evenodd" d="M30.2764 11.0017C30.2764 10.3088 30.4736 9.80977 30.8668 9.50099C31.2612 9.19222 31.8171 9.03906 32.532 9.03906C32.9745 9.03906 33.3813 9.09341 33.7511 9.20457C34.1196 9.31696 34.3662 9.39601 34.4906 9.44541V19.1843C34.4906 20.864 34.8826 22.1436 35.6727 23.0181C36.4616 23.8938 37.6683 24.3335 39.2953 24.3335C40.9212 24.3335 42.1279 23.8938 42.9167 23.0181C43.7056 22.1436 44.1001 20.864 44.1001 19.1843V11.0017C44.1001 10.3088 44.296 9.80977 44.6905 9.50099C45.0849 9.19222 45.626 9.03906 46.3163 9.03906C46.7859 9.03906 47.2038 9.09341 47.5723 9.20457C47.9433 9.31696 48.1898 9.39601 48.3119 9.44541V20.1106C48.3119 21.3704 48.0962 22.4993 47.666 23.4998C47.2333 24.5002 46.6195 25.345 45.8183 26.0354C45.0183 26.7271 44.0631 27.252 42.9537 27.6102C41.8456 27.9672 40.6253 28.1475 39.2953 28.1475C37.9641 28.1475 36.7451 27.9672 35.637 27.6102C34.5264 27.252 33.5785 26.7271 32.7897 26.0354C32.0008 25.345 31.3857 24.5002 30.942 23.4998C30.4995 22.4993 30.2764 21.3704 30.2764 20.1106V11.0017Z" fill="gray"/>
<path fill-rule="evenodd" clip-rule="evenodd" d="M51.6387 5.74238C51.6387 5.04948 51.8347 4.55173 52.2303 4.24172C52.6235 3.93294 53.1659 3.77979 53.8561 3.77979C54.2986 3.77979 54.7103 3.83413 55.0937 3.94653C55.4758 4.05769 55.7272 4.13797 55.8517 4.18614V9.03766H61.2111C62.0246 9.03766 62.5965 9.2044 62.9293 9.53664C63.2622 9.87136 63.4261 10.3568 63.4261 11.0003C63.4261 11.4214 63.3669 11.808 63.2437 12.1662C63.1192 12.5244 63.0206 12.7776 62.9478 12.9258H55.8517V21.185C55.8517 21.826 55.9368 22.3509 56.1106 22.7573C56.2831 23.1649 56.5223 23.4922 56.8304 23.738C57.1398 23.9862 57.496 24.1591 57.9028 24.2592C58.3083 24.3568 58.7348 24.4049 59.1761 24.4049C59.8922 24.4049 60.5578 24.295 61.1729 24.0727C61.788 23.8504 62.2342 23.6404 62.5041 23.444L64.2039 26.2576C64.0066 26.4058 63.7305 26.5923 63.3731 26.8134C63.0144 27.0357 62.5781 27.2457 62.0604 27.4421C61.5427 27.6409 60.9633 27.8064 60.3236 27.9435C59.6827 28.0782 58.9813 28.1461 58.2183 28.1461C56.0489 28.1461 54.4108 27.5853 53.3027 26.4602C52.1921 25.3399 51.6387 23.8639 51.6387 22.036V5.74238Z" fill="gray"/>
<path fill-rule="evenodd" clip-rule="evenodd" d="M75.8455 24.3332C76.6824 24.3332 77.4528 24.1788 78.1554 23.87C78.8567 23.5613 79.4607 23.1425 79.9661 22.6102C80.4714 22.0791 80.8597 21.4504 81.1309 20.7205C81.4008 19.9942 81.5364 19.1988 81.5364 18.333C81.5364 17.4684 81.4008 16.6656 81.1309 15.9246C80.8597 15.1847 80.4714 14.5499 79.9661 14.0188C79.4607 13.4889 78.8567 13.069 78.1554 12.7602C77.4528 12.4514 76.6824 12.2958 75.8455 12.2958C74.9826 12.2958 74.2012 12.4514 73.4986 12.7602C72.796 13.069 72.1982 13.4951 71.7064 14.0361C71.2121 14.5807 70.8263 15.223 70.5416 15.9628C70.2593 16.7039 70.1175 17.4944 70.1175 18.333C70.1175 19.2211 70.2593 20.0362 70.5416 20.7761C70.8263 21.5184 71.2183 22.147 71.7249 22.6646C72.229 23.1833 72.833 23.5909 73.5368 23.8873C74.2369 24.185 75.0073 24.3332 75.8455 24.3332ZM65.9415 2.29755C65.9415 1.63183 66.1375 1.13778 66.5319 0.816655C66.9251 0.495526 67.481 0.334961 68.1947 0.334961C68.6384 0.334961 69.0452 0.390541 69.4137 0.501701C69.7835 0.614096 70.0288 0.693144 70.1545 0.742548V11.3707C70.7696 10.5802 71.6201 9.90832 72.7035 9.35252C73.7882 8.79672 75.0319 8.51758 76.4359 8.51758C77.7917 8.51758 79.0428 8.75966 80.1879 9.24136C81.333 9.72305 82.3327 10.4024 83.1807 11.2781C84.0324 12.155 84.698 13.1912 85.1763 14.3881C85.6582 15.5861 85.8974 16.9003 85.8974 18.333C85.8974 19.7398 85.6508 21.0503 85.159 22.2582C84.666 23.4686 83.9745 24.5061 83.0907 25.3695C82.202 26.234 81.1481 26.9133 79.9291 27.4062C78.7088 27.9002 77.3727 28.146 75.9194 28.146C74.4649 28.146 73.1288 27.9249 71.9097 27.4803C70.6882 27.0356 69.6381 26.3687 68.7493 25.4806C67.8619 24.5913 67.1728 23.481 66.6798 22.147C66.1868 20.8131 65.9415 19.247 65.9415 17.445V2.29755Z" fill="gray"/>
<path fill-rule="evenodd" clip-rule="evenodd" d="M88.3738 15.6671C88.3738 13.3958 89.069 11.637 90.4618 10.3907C91.8535 9.14326 93.7825 8.51953 96.2452 8.51953C97.7983 8.51953 99.0605 8.73691 100.034 9.16673C101.008 9.60025 101.495 10.2598 101.495 11.1503C101.495 11.5703 101.378 11.9766 101.144 12.3706C100.908 12.7658 100.718 13.0129 100.572 13.1117C100.151 12.9141 99.6349 12.7288 99.0186 12.5559C98.4023 12.3842 97.6985 12.2965 96.9108 12.2965C94.0302 12.2965 92.5881 13.828 92.5881 16.8887V27.6292H88.3738V15.6671Z" fill="gray"/>
<path fill-rule="evenodd" clip-rule="evenodd" d="M115.537 19.3325C115.292 19.283 114.829 19.2089 114.151 19.1101C113.472 19.0126 112.458 18.9619 111.102 18.9619C109.426 18.9619 108.208 19.2151 107.444 19.7215C106.679 20.2279 106.297 21.0246 106.297 22.1102C106.297 22.5549 106.376 22.9612 106.538 23.333C106.698 23.7035 106.975 24.0172 107.368 24.2778C107.763 24.536 108.299 24.7348 108.977 24.8695C109.655 25.0053 110.499 25.0733 111.51 25.0733C112.641 25.0733 113.541 25.03 114.207 24.9423C114.871 24.8583 115.316 24.7892 115.537 24.7398V19.3325ZM119.712 27.5546C119.466 27.6028 119.079 27.6583 118.549 27.7213C118.021 27.7819 117.397 27.8448 116.683 27.9054C115.968 27.9671 115.167 28.0227 114.28 28.0733C113.395 28.1203 112.47 28.1474 111.51 28.1474C109.587 28.1474 108.017 27.9795 106.796 27.646C105.577 27.3137 104.616 26.8691 103.915 26.3133C103.213 25.7575 102.731 25.1165 102.472 24.3865C102.214 23.6603 102.085 22.913 102.085 22.146C102.085 21.1345 102.24 20.2464 102.548 19.4807C102.855 18.7161 103.36 18.0726 104.061 17.5564C104.764 17.0376 105.682 16.6486 106.815 16.3879C107.949 16.1286 109.329 15.9989 110.955 15.9989C111.89 15.9989 112.778 16.031 113.614 16.0928C114.452 16.1545 115.081 16.2101 115.5 16.2595C115.5 15.3949 115.357 14.6785 115.076 14.1116C114.792 13.5435 114.404 13.0988 113.912 12.7789C113.418 12.4578 112.826 12.2355 112.137 12.112C111.447 11.9885 110.683 11.9267 109.846 11.9267C108.442 11.9267 107.314 12.0873 106.464 12.4084C105.614 12.7295 105.055 13 104.782 13.2236C104.634 13.0988 104.431 12.8654 104.172 12.5183C103.915 12.1737 103.785 11.7538 103.785 11.2598C103.785 10.9152 103.878 10.5743 104.061 10.2408C104.247 9.90854 104.573 9.61212 105.041 9.35274C105.51 9.09337 106.138 8.89081 106.926 8.74136C107.715 8.59315 108.713 8.51904 109.917 8.51904C111.373 8.51904 112.697 8.66232 113.893 8.94516C115.089 9.22923 116.116 9.68005 116.978 10.2976C117.841 10.9152 118.511 11.7303 118.992 12.7419C119.473 13.7534 119.712 14.9762 119.712 16.4077V27.5546Z" fill="gray"/>
<path fill-rule="evenodd" clip-rule="evenodd" d="M123.481 11.0017C123.481 10.3088 123.68 9.80984 124.073 9.50106C124.467 9.19228 125.022 9.03913 125.737 9.03913C126.18 9.03913 126.588 9.09347 126.956 9.20463C127.325 9.31703 127.571 9.39608 127.696 9.44548V27.6288H123.481V11.0017ZM125.589 0.70459C126.304 0.70459 126.907 0.951612 127.4 1.44689C127.892 1.94094 128.138 2.54491 128.138 3.26004C128.138 3.97764 127.892 4.58161 127.4 5.07442C126.907 5.57093 126.304 5.81672 125.589 5.81672C124.875 5.81672 124.271 5.57093 123.777 5.07442C123.285 4.58161 123.039 3.97764 123.039 3.26004C123.039 2.54491 123.285 1.94094 123.777 1.44689C124.271 0.951612 124.875 0.70459 125.589 0.70459Z" fill="gray"/>
<path fill-rule="evenodd" clip-rule="evenodd" d="M131.466 16.4077C131.466 15.1738 131.694 14.0684 132.148 13.0927C132.603 12.1169 133.233 11.2906 134.033 10.6126C134.834 9.93325 135.783 9.41573 136.88 9.05755C137.975 8.69937 139.177 8.51904 140.481 8.51904C141.789 8.51904 142.995 8.69937 144.105 9.05755C145.213 9.41573 146.168 9.93325 146.968 10.6126C147.768 11.2906 148.392 12.1169 148.835 13.0927C149.278 14.0684 149.501 15.1738 149.501 16.4077V27.6287H145.288V17.481C145.288 15.8037 144.88 14.5254 144.069 13.6497C143.254 12.7728 142.059 12.3331 140.481 12.3331C138.881 12.3331 137.68 12.7728 136.88 13.6497C136.079 14.5254 135.679 15.8037 135.679 17.481V27.6287H131.466V16.4077Z" fill="gray"/>
<path fill-rule="evenodd" clip-rule="evenodd" d="M20.7669 23.8966C19.9682 24.6821 19.0327 25.296 17.9591 25.7431C16.8855 26.1865 15.7182 26.4088 14.4597 26.4088C13.2 26.4088 12.0339 26.1865 10.9615 25.7431C9.88671 25.296 8.94993 24.6821 8.1512 23.8966C7.35248 23.1135 6.72631 22.1872 6.27518 21.1188C5.83883 20.0875 5.6145 18.9722 5.59848 17.7754H7.72226C7.74444 18.1435 7.82333 18.4881 7.96015 18.8116C8.12409 19.2007 8.35212 19.5367 8.64055 19.8207C8.93021 20.106 9.27164 20.3296 9.66115 20.4889C10.0507 20.652 10.4747 20.7335 10.932 20.7335C11.3893 20.7335 11.8108 20.652 12.2015 20.4889C12.5911 20.3296 12.9325 20.106 13.2221 19.8207C13.5118 19.5367 13.7398 19.2007 13.9025 18.8116C14.0122 18.556 14.0837 18.2843 14.1195 18.0002H14.7999C14.8356 18.2843 14.9071 18.556 15.0168 18.8116C15.182 19.2007 15.4076 19.5367 15.6985 19.8207C15.9869 20.106 16.3283 20.3296 16.7178 20.4889C17.1073 20.652 17.5313 20.7335 17.9874 20.7335C18.4459 20.7335 18.8687 20.652 19.2582 20.4889C19.6477 20.3296 19.9892 20.106 20.2788 19.8207C20.5685 19.5367 20.7965 19.2007 20.9605 18.8116C21.0973 18.4881 21.1762 18.1435 21.1996 17.7754H23.3184C23.3061 18.9722 23.0805 20.0875 22.6442 21.1188C22.1918 22.1872 21.5657 23.1135 20.7669 23.8966ZM12.8425 17.5518C12.8425 17.8211 12.7932 18.0706 12.6971 18.3015C12.5997 18.53 12.4653 18.7289 12.2915 18.8993C12.1177 19.0698 11.9168 19.2019 11.6863 19.297C11.4534 19.3934 11.2031 19.4416 10.932 19.4416C10.6596 19.4416 10.4081 19.3934 10.1764 19.297C9.94588 19.2019 9.74373 19.0698 9.57117 18.8993C9.39737 18.7289 9.26302 18.53 9.16687 18.3015C9.0695 18.0706 9.02019 17.8211 9.02019 17.5518C9.02019 17.2851 9.0695 17.0343 9.16687 16.8034C9.26302 16.5736 9.39737 16.3748 9.57117 16.2043C9.74373 16.0364 9.94588 15.903 10.1764 15.8079C10.4081 15.7115 10.6596 15.6633 10.932 15.6633C11.2031 15.6633 11.4534 15.7115 11.6863 15.8079C11.9168 15.903 12.1177 16.0364 12.2915 16.2043C12.4653 16.3748 12.5997 16.5736 12.6971 16.8034C12.7932 17.0343 12.8425 17.2851 12.8425 17.5518ZM19.8992 17.5518C19.8992 17.8211 19.8511 18.0706 19.7525 18.3015C19.6564 18.53 19.5208 18.7289 19.3494 18.8993C19.1769 19.0698 18.9735 19.2019 18.7418 19.297C18.5113 19.3934 18.2598 19.4416 17.9874 19.4416C17.7162 19.4416 17.4648 19.3934 17.2343 19.297C17.0013 19.2019 16.7992 19.0698 16.6278 18.8993C16.4553 18.7289 16.3209 18.53 16.2223 18.3015C16.1249 18.0706 16.0769 17.8211 16.0769 17.5518C16.0769 17.2851 16.1249 17.0343 16.2223 16.8034C16.3209 16.5736 16.4553 16.3748 16.6278 16.2043C16.7992 16.0364 17.0013 15.903 17.2343 15.8079C17.4648 15.7115 17.7162 15.6633 17.9874 15.6633C18.2598 15.6633 18.5113 15.7115 18.7418 15.8079C18.9735 15.903 19.1769 16.0364 19.3494 16.2043C19.5208 16.3748 19.6564 16.5736 19.7525 16.8034C19.8511 17.0343 19.8992 17.2851 19.8992 17.5518ZM6.38734 13.9465C7.89482 13.4488 9.89411 12.8139 9.89411 12.8139C14.2921 11.4121 14.8812 9.75457 14.8812 9.75457C14.8812 9.75457 15.8069 11.4121 18.9994 12.5052C18.9994 12.5052 20.7632 13.0869 22.4038 13.681C22.4864 13.844 22.5715 14.0071 22.6442 14.18C22.9326 14.8618 23.1286 15.5806 23.2321 16.3328H20.9752L20.9605 16.2933C20.7965 15.9042 20.5685 15.5695 20.2788 15.2842C19.9892 14.9989 19.6477 14.7753 19.2582 14.6135C18.8687 14.4529 18.4459 14.3727 17.9874 14.3727C17.5313 14.3727 17.1073 14.4529 16.7178 14.6135C16.3283 14.7753 15.9869 14.9989 15.6985 15.2842C15.4076 15.5695 15.182 15.9042 15.0168 16.2933C14.9651 16.4155 14.9219 16.5403 14.8862 16.6675H14.0332C13.9987 16.5403 13.9555 16.4155 13.9025 16.2933C13.7398 15.9042 13.5118 15.5695 13.2221 15.2842C12.9325 14.9989 12.5911 14.7753 12.2015 14.6135C11.8108 14.4529 11.3893 14.3727 10.932 14.3727C10.4747 14.3727 10.0507 14.4529 9.66115 14.6135C9.27164 14.7753 8.93021 14.9989 8.64055 15.2842C8.35212 15.5695 8.12409 15.9042 7.96015 16.2933C7.95399 16.3056 7.95029 16.3192 7.94413 16.3328H5.68846C5.792 15.5806 5.98675 14.8618 6.27518 14.18C6.30969 14.0997 6.3516 14.0256 6.38734 13.9465ZM26.9522 9.62982C26.2607 8.00071 25.3079 6.58774 24.0863 5.39092C22.8673 4.19162 21.4387 3.25417 19.8006 2.5761C18.1612 1.89678 16.3813 1.55713 14.4597 1.55713C12.5381 1.55713 10.7582 1.89678 9.1188 2.5761C7.48067 3.25417 6.05084 4.19162 4.83179 5.39092C3.61275 6.58774 2.65748 8.00071 1.96845 9.62982C1.27696 11.2602 0.93306 13.0264 0.93306 14.926C0.93306 16.8281 1.27696 18.5918 1.96845 20.2221C2.65748 21.8525 3.61275 23.2642 4.83179 24.4623C6.05084 25.6603 7.48067 26.5978 9.1188 27.2771C10.7582 27.9552 12.5381 28.2948 14.4597 28.2948C16.3813 28.2948 18.1612 27.9552 19.8006 27.2771C21.4387 26.5978 22.8673 25.6603 24.0863 24.4623C25.3079 23.2642 26.2607 21.8525 26.9522 20.2221C27.6399 18.5918 27.9851 16.8281 27.9851 14.926C27.9851 13.0264 27.6399 11.2602 26.9522 9.62982Z" fill="gray"/>
</g>
<defs>
<clipPath id="clip0_219_23425">
<rect width="148.615" height="28" fill="gray" transform="translate(0.909027 0.334961)"/>
</clipPath>
</defs>
</svg>
