<svg width="164" height="51" viewBox="0 0 164 51" fill="none" xmlns="http://www.w3.org/2000/svg">
<path d="M29.5134 13.079L32.91 7.16976C33.8998 5.43975 33.3176 3.22378 31.5901 2.23242C29.8627 1.24106 27.6501 1.82421 26.6602 3.55423L23.2442 9.46349C15.9851 7.16976 7.85265 10.1438 3.89316 17.025C1.36996 21.3986 1.05941 26.4332 2.59274 30.8457L8.88134 19.9213C10.3176 17.4138 12.6661 15.6254 15.4611 14.8674C18.256 14.1093 21.1674 14.498 23.6712 15.9559C28.834 18.9494 30.6197 25.5973 27.6307 30.7679C24.6416 35.9385 18.0231 37.7269 12.8408 34.7333L16.4509 28.4742C18.1784 29.4656 20.391 28.8824 21.3809 27.1524C22.3708 25.4224 21.7885 23.2064 20.0611 22.215C18.3336 21.2237 16.121 21.8068 15.1311 23.5369L3.64084 43.5C2.65097 45.2301 3.23325 47.446 4.96067 48.4374C6.68809 49.4287 8.90074 48.8456 9.89062 47.1156L13.3066 41.2063C20.5657 43.5 28.6982 40.526 32.6577 33.6448C36.6171 26.7831 35.1226 18.2496 29.5134 13.079Z" fill="gray"/>
<path d="M99.775 17.1807C95.1944 17.1807 91.5454 20.6407 91.5454 25.3448C91.5454 30.0489 95.1944 33.5089 99.775 33.5089C104.356 33.5089 108.004 30.0489 108.004 25.3448C108.004 20.6407 104.356 17.1807 99.775 17.1807ZM135.585 17.1807C131.004 17.1807 127.355 20.6407 127.355 25.3448C127.355 30.0489 131.004 33.5089 135.585 33.5089C140.166 33.5089 143.814 30.0489 143.814 25.3448C143.814 20.6407 140.166 17.1807 135.585 17.1807ZM149.055 17.2388V33.2948H152.122V26.6276C152.122 25.4808 151.889 23.7312 151.889 23.7312C151.889 23.7312 152.995 25.1501 153.791 25.9082L161.788 33.4504H162.117V17.3944H159.051V24.0615C159.051 25.1501 159.264 26.9579 159.264 26.9579C159.264 26.9579 158.177 25.5002 157.401 24.781L149.385 17.2388H149.055ZM44.7884 17.375V33.3145H48.0687V28.0855H50.3785C53.6198 28.0855 56.2983 26.4528 56.2983 22.7206C56.2983 18.9884 53.6198 17.375 50.3785 17.375H44.7884ZM61.0922 17.375V33.2948H71.9421V30.4181H64.3724V26.7248H70.7582V23.9063H64.3724V20.2517H71.6119V17.375H61.0922ZM77.4346 17.375V33.2948H87.8963V30.4181H80.6955V17.375H77.4346ZM111.518 17.375V20.2517H116.04V33.2948H119.32V20.2517H123.862V17.375H111.518ZM99.775 20.0964C102.667 20.0964 104.627 22.3707 104.627 25.3448C104.627 28.3188 102.667 30.5931 99.775 30.5931C96.883 30.5931 94.9227 28.3188 94.9227 25.3448C94.9227 22.3707 96.883 20.0964 99.775 20.0964ZM135.585 20.0964C138.477 20.0964 140.437 22.3707 140.437 25.3448C140.437 28.3188 138.477 30.5931 135.585 30.5931C132.693 30.5931 130.733 28.3188 130.733 25.3448C130.733 22.3707 132.693 20.0964 135.585 20.0964ZM48.0687 20.2711H50.2814C51.8536 20.2711 52.921 20.9323 52.921 22.7206C52.921 24.4895 51.8924 25.2085 50.2814 25.2085H48.0687V20.2711Z" fill="gray"/>
</svg>
