<svg width="112" height="43" viewBox="0 0 112 43" fill="none" xmlns="http://www.w3.org/2000/svg">
<path fill-rule="evenodd" clip-rule="evenodd" d="M58.4447 15.2275C57.5135 14.441 55.9243 14.0482 53.676 14.0482H48.6052V29.7854H52.3969V24.8532H54.0954C56.1568 24.8532 57.6686 24.3975 58.6306 23.4854C59.7141 22.4635 60.2595 21.1029 60.2595 19.4042C60.2595 17.6427 59.6542 16.2502 58.4447 15.2275ZM54.0011 21.2922H52.3969V17.6091H53.8381C55.5913 17.6091 56.4678 18.2267 56.4678 19.4617C56.4678 20.6809 55.645 21.2922 54.0011 21.2922ZM66.7477 14.0473H62.794V29.7846H71.3305V26.2227H66.7477V14.0473ZM79.0767 14.0473L72.866 29.7846H77.1228L77.9368 27.4967H83.3335L84.078 29.7846H88.3823L82.2156 14.0473H79.0767ZM79.0301 24.3108L80.659 18.9318L82.2623 24.3108H79.0301ZM90.3574 29.7846H94.3121V14.0473H90.3574V29.7846ZM109.665 16.9969C109.166 16.2695 108.525 15.6516 107.78 15.1806C106.586 14.425 104.958 14.0482 102.895 14.0482H97.6852V29.7846H103.78C105.982 29.7846 107.749 29.0617 109.083 27.6144C110.417 26.1678 111.083 24.248 111.083 21.8566C111.083 19.9545 110.611 18.3346 109.665 16.9969ZM103.337 26.2218H101.64V17.61H103.361C104.571 17.61 105.5 17.9904 106.152 18.7486C106.804 19.5068 107.13 20.5826 107.13 21.9752C107.13 24.8063 105.866 26.2218 103.337 26.2218ZM16.5013 0.834961L3.68601 4.20572L0.154243 17.1482L4.57137 21.7027L0.0828857 26.182L3.40675 39.1811L16.1666 42.7615L20.6559 38.2813L25.0731 42.835L37.8884 39.4642L41.4193 26.5208L37.003 21.9681L41.4915 17.4888L38.1676 4.48883L25.4061 0.908392L20.9185 5.3877L16.5013 0.834961ZM8.637 6.6953L15.3878 4.9188L18.3399 7.96221L14.0346 12.2584L8.637 6.6953ZM23.4565 8.00291L26.4562 5.00992L33.1779 6.89613L27.6922 12.3699L23.4565 8.00291ZM4.19873 16.0857L6.05843 9.26893L11.4543 14.832L7.14994 19.1282L4.19873 16.0848V16.0857ZM30.2284 14.986L35.7142 9.51046L37.4638 16.3581L34.465 19.352L30.2284 14.986ZM16.5718 14.8736L20.8771 10.5774L25.1118 14.9444L20.8075 19.2405L16.5718 14.8736ZM9.68799 21.7434L13.9924 17.4472L18.2298 21.8142L13.9236 26.1103L9.68799 21.7434ZM23.3455 21.8558L27.6499 17.5596L31.8855 21.9265L27.5803 26.2227L23.3455 21.8558ZM4.10887 27.3118L7.10942 24.317L11.3442 28.6849L5.86022 34.1577L4.10887 27.3118ZM16.4608 28.7256L20.7661 24.4294L25.0017 28.7963L20.6973 33.0925L16.4608 28.7256ZM30.1174 28.8388L34.4227 24.5426L37.3748 27.5852L35.516 34.4019L30.1174 28.8388ZM8.3965 36.7747L13.8814 31.2992L18.1188 35.6661L15.1182 38.6609L8.3965 36.7747ZM23.2345 35.7077L27.5389 31.4115L32.9356 36.9755L26.1857 38.7511L23.2345 35.7077Z" fill="gray"/>
</svg>
