<svg width="73" height="56" viewBox="0 0 73 56" fill="none" xmlns="http://www.w3.org/2000/svg">
<g clip-path="url(#clip0_219_23450)">
<path d="M72.8109 24.4515H46.5293V17.7051H72.8109V24.4515Z" fill="gray"/>
<path d="M69.3973 24.4511H46.5293V7.57764H69.3973V24.4511Z" fill="gray"/>
<path d="M59.9494 24.4513H46.5293V0.834961H59.9494V24.4513Z" fill="gray"/>
<path d="M62.5897 24.4513H46.5293V3.47021H62.5897V24.4513Z" fill="gray"/>
<path d="M46.5255 3.47412V24.4491H59.9479V3.47412H46.5255Z" fill="gray"/>
<path d="M33.0719 24.4512H46.5293V27.8247H33.0719V24.4512Z" fill="gray"/>
<path d="M46.5255 7.57422V24.4492H62.5973V7.57422H46.5255Z" fill="gray"/>
<path d="M46.5255 7.57422V24.4492H59.9479V7.57422H46.5255Z" fill="gray"/>
<path d="M54.9216 24.4514H46.5293V14.3237H54.9216V24.4514Z" fill="gray"/>
<path d="M46.5255 17.7095V24.4489H69.405V17.7095H46.5255Z" fill="gray"/>
<path d="M46.5255 17.7095V24.4489H62.5973V17.7095H46.5255Z" fill="gray"/>
<path d="M46.5255 17.7095V24.4489H59.9479V17.7095H46.5255Z" fill="gray"/>
<path d="M46.5255 17.7095V24.4489H54.9299V17.7095H46.5255Z" fill="gray"/>
<path d="M49.4553 37.1574C47.1655 37.5657 45.9443 39.3007 45.9443 42.3116C45.9443 45.3734 47.5726 47.4147 49.9641 47.4147C51.1345 47.4147 52.1521 47.0064 54.2893 45.9348C54.2893 48.4353 54.2893 48.4353 54.2893 48.4353C51.6942 49.66 50.1677 49.9662 48.1323 49.9662C45.8426 49.9662 44.2143 49.4049 42.9422 48.027C41.6192 46.7002 40.9068 44.9652 40.9068 42.975C40.9068 38.6373 44.1634 35.6265 48.8956 35.6265C51.9995 35.6265 54.1875 37.1064 54.1875 39.1986C54.1875 40.5765 53.1698 41.5461 51.6942 41.5461C50.9309 41.5461 50.3203 41.2909 49.4553 40.8316" fill="gray"/>
<path d="M38.0064 42.975C40.0927 40.3724 40.8559 39.3007 40.8559 38.0249C40.8559 36.7492 39.8383 35.6265 38.4135 35.6265C37.5994 35.6265 36.8361 36.0857 36.4799 36.494C36.4799 41.8523 36.4799 41.8523 36.4799 41.8523C33.0707 46.4451 33.0707 46.4451 33.0707 46.4451C33.0707 36.0347 33.0707 36.0347 33.0707 36.0347C29.8142 36.0347 29.8142 36.0347 29.8142 36.0347C24.4205 44.9652 24.4205 44.9652 24.4205 44.9652C24.4205 36.0347 24.4205 36.0347 24.4205 36.0347C22.5887 36.0347 22.5887 36.0347 22.5887 36.0347C17.653 37.1574 17.653 37.1574 17.653 37.1574C17.653 38.4332 17.653 38.4332 17.653 38.4332C20.3498 38.6883 20.3498 38.6883 20.3498 38.6883C20.3498 49.7621 20.3498 49.7621 20.3498 49.7621C23.759 49.7621 23.759 49.7621 23.759 49.7621C28.9491 41.1889 28.9491 41.1889 28.9491 41.1889C28.9491 49.7621 28.9491 49.7621 28.9491 49.7621C32.7654 49.7621 32.7654 49.7621 32.7654 49.7621" fill="gray"/>
<path d="M7.32357 48.027C7.73064 48.027 7.83241 48.027 8.08682 48.027C10.8345 48.027 12.3611 46.343 12.3611 42.9749C12.3611 40.1682 11.1398 38.6373 8.85008 38.6373C8.54478 38.6373 8.08682 38.6883 7.32357 38.8414V48.027ZM7.32357 54.0487C9.56245 54.559 9.56245 54.559 9.56245 54.559C9.56245 55.8348 9.56245 55.8348 9.56245 55.8348C0.759565 55.8348 0.759566 55.8348 0.759566 55.8348C0.759566 54.559 0.759566 54.559 0.759566 54.559C2.79492 54.0487 2.79491 54.0487 2.79491 54.0487C2.79491 38.6373 2.79491 38.6373 2.79491 38.6373C0.55603 38.6373 0.55603 38.6373 0.55603 38.6373C0.55603 37.3615 0.55603 37.3615 0.55603 37.3615C5.89882 35.7285 5.89882 35.7285 5.89882 35.7285C7.32357 35.7285 7.32357 35.7285 7.32357 35.7285C7.32357 37.5656 7.32357 37.5656 7.32357 37.5656C9.81687 36.0347 10.6819 35.7795 12.0049 35.7795C14.9561 35.7795 17.195 38.5352 17.195 42.3626C17.195 46.7513 14.1929 49.7621 9.61334 49.7621C9.1045 49.7621 8.23948 49.7111 7.32357 49.66" fill="gray"/>
</g>
<defs>
<clipPath id="clip0_219_23450">
<rect width="72.2549" height="55" fill="gray" transform="translate(0.55603 0.834961)"/>
</clipPath>
</defs>
</svg>
