<svg width="155" height="36" viewBox="0 0 155 36" fill="none" xmlns="http://www.w3.org/2000/svg">
<g clip-path="url(#clip0_219_23375)">
<path fill-rule="evenodd" clip-rule="evenodd" d="M0.976538 24.3883C0.849197 24.7204 1.02196 24.7897 1.06292 24.8485C1.44345 25.124 1.82994 25.3236 2.21718 25.5478C4.28739 26.6424 6.23845 26.9627 8.27888 26.9627C12.4342 26.9627 15.0182 24.7509 15.0182 21.1914V21.1214C15.0182 17.8299 12.0991 16.6309 9.37356 15.7746L9.01685 15.6591C6.95409 14.9904 5.1743 14.4081 5.1743 13.0528V12.9835C5.1743 11.8218 6.21686 10.9654 7.82537 10.9654C9.6126 10.9654 11.7424 11.5604 13.1052 12.3133C13.1052 12.3133 13.5088 12.5739 13.6555 12.1845C13.7352 11.9737 14.4299 10.1142 14.5044 9.90573C14.5833 9.68754 14.4448 9.52297 14.3026 9.43807C12.7388 8.48488 10.5792 7.83701 8.34515 7.83701L7.93037 7.8385C4.12505 7.8385 1.46654 10.1396 1.46654 13.4311V13.5018C1.46654 16.972 4.40058 18.1039 7.14101 18.8858L7.58186 19.0229C9.5776 19.6365 11.3053 20.1697 11.3053 21.5697V21.6397C11.3053 22.928 10.1808 23.8886 8.37866 23.8886C7.67792 23.8886 5.44462 23.8767 3.02441 22.3471C2.73175 22.1766 2.56494 22.0537 2.3393 21.9159C2.22015 21.8437 1.92228 21.7134 1.79271 22.1036L0.973558 24.3823M61.814 24.3823C61.6866 24.7145 61.8594 24.7837 61.9018 24.8425C62.2809 25.1181 62.6689 25.3176 63.0561 25.5418C65.1263 26.6365 67.0774 26.9567 69.1178 26.9567C73.2731 26.9567 75.8572 24.745 75.8572 21.1854V21.1154C75.8572 17.8239 72.9455 16.625 70.2125 15.7686L69.8558 15.6532C67.793 14.9845 66.0132 14.4021 66.0132 13.0468V12.9775C66.0132 11.8158 67.0558 10.9595 68.6643 10.9595C70.4515 10.9595 72.5739 11.5545 73.9441 12.3073C73.9441 12.3073 74.3477 12.568 74.4951 12.1785C74.5741 11.9678 75.2696 10.1083 75.3366 9.89978C75.4163 9.68159 75.2771 9.51701 75.1356 9.43212C73.5717 8.47893 71.4122 7.83105 69.1781 7.83105L68.7626 7.83254C64.9573 7.83254 62.2988 10.1336 62.2988 13.4251V13.4958C62.2988 16.966 65.2328 18.098 67.9732 18.8799L68.4133 19.0169C70.4165 19.6305 72.1367 20.1637 72.1367 21.5637V21.6337C72.1367 22.922 71.0123 23.8826 69.2102 23.8826C68.5079 23.8826 66.2687 23.8707 63.8559 22.3412C63.5632 22.1706 63.392 22.053 63.17 21.91C63.0948 21.8623 62.7441 21.7253 62.6242 22.0976L61.805 24.3764M103.358 17.4062C103.358 19.4168 102.983 21.003 102.249 22.1274C101.516 23.237 100.409 23.7806 98.8678 23.7806C97.3263 23.7806 96.2242 23.2415 95.5018 22.1349C94.7743 21.0179 94.4072 19.4242 94.4072 17.4136C94.4072 15.403 94.7765 13.8242 95.5018 12.7147C96.2227 11.6125 97.3189 11.0838 98.8678 11.0838C100.417 11.0838 101.519 11.6178 102.249 12.7147C102.987 13.8242 103.358 15.403 103.358 17.4136M106.828 13.6828C106.487 12.5285 105.957 11.5157 105.25 10.6668C104.542 9.81786 103.649 9.13275 102.584 8.64127C101.526 8.14605 100.275 7.89658 98.8604 7.89658C97.4455 7.89658 96.2018 8.14754 95.1369 8.64127C94.0795 9.13573 93.1785 9.81786 92.471 10.6668C91.765 11.5157 91.2348 12.5285 90.8923 13.6828C90.5534 14.8296 90.3814 16.0806 90.3814 17.4136C90.3814 18.7466 90.5534 19.9976 90.8923 21.1445C91.2326 22.2987 91.7636 23.3115 92.471 24.1604C93.1792 25.0094 94.0795 25.687 95.1369 26.1711C96.2018 26.6536 97.4529 26.8993 98.8604 26.8993C100.268 26.8993 101.519 26.6536 102.576 26.1711C103.634 25.6885 104.535 25.0094 105.242 24.1604C105.949 23.3115 106.478 22.2987 106.821 21.1445C107.159 19.9976 107.331 18.7466 107.331 17.4136C107.331 16.0881 107.159 14.8296 106.821 13.6828M135.342 23.2147C135.228 22.8773 134.899 23.0047 134.899 23.0047C134.395 23.1975 133.857 23.3763 133.283 23.4656C132.705 23.5565 132.062 23.6019 131.384 23.6019C129.709 23.6019 128.368 23.1022 127.415 22.1125C126.455 21.1221 125.918 19.5285 125.926 17.3689C125.931 15.403 126.406 13.9285 127.259 12.7966C128.1 11.6796 129.396 11.0987 131.109 11.0987C132.539 11.0987 133.633 11.2648 134.78 11.6237C134.78 11.6237 135.052 11.7421 135.182 11.3839C135.487 10.5424 135.712 9.93924 136.039 9.01584C136.131 8.75148 135.905 8.63978 135.822 8.60776C135.372 8.43201 134.31 8.14382 133.506 8.02243C132.754 7.90775 131.882 7.84818 130.9 7.84818C129.44 7.84818 128.144 8.09765 127.035 8.59212C125.925 9.08584 124.987 9.76871 124.242 10.6176C123.497 11.4666 122.931 12.4794 122.552 13.6336C122.176 14.7804 121.986 16.0389 121.986 17.3719C121.986 20.2464 122.76 22.5772 124.294 24.2825C125.828 25.9953 128.137 26.8591 131.145 26.8591C132.925 26.8591 134.75 26.4995 136.06 25.9804C136.06 25.9804 136.31 25.8598 136.202 25.5679L135.345 23.2147M141.414 15.47C141.58 14.353 141.887 13.4221 142.368 12.6998C143.088 11.5976 144.185 10.9945 145.726 10.9945C147.268 10.9945 148.288 11.6006 149.018 12.6998C149.502 13.4258 149.713 14.3902 149.792 15.47L141.377 15.4685L141.414 15.47ZM153.106 13.0125C152.81 11.903 152.078 10.7785 151.602 10.2647C150.842 9.45297 150.105 8.87956 149.368 8.5668C148.303 8.11422 147.158 7.88192 146.002 7.88393C144.535 7.88393 143.202 8.13191 142.122 8.63606C141.042 9.14393 140.134 9.83499 139.419 10.6988C138.705 11.5626 138.168 12.5829 137.825 13.752C137.482 14.9063 137.31 16.1722 137.31 17.4978C137.31 18.8531 137.489 20.1116 137.842 21.2509C138.199 22.3978 138.773 23.4031 139.548 24.2371C140.322 25.0786 141.312 25.7339 142.504 26.1956C143.688 26.6536 145.125 26.8912 146.771 26.8859C150.167 26.8748 151.954 26.1189 152.684 25.7093C152.814 25.6364 152.937 25.5105 152.783 25.1479L152.016 22.9957C151.899 22.6748 151.574 22.7909 151.574 22.7909C150.733 23.1052 149.541 23.6697 146.749 23.6622C144.924 23.6592 143.576 23.1208 142.727 22.2771C141.863 21.4133 141.432 20.1548 141.365 18.3675L153.13 18.3765C153.13 18.3765 153.44 18.3735 153.472 18.0712C153.485 17.9461 153.875 15.6584 153.122 13.0148L153.106 13.0125ZM47.3612 15.47C47.5273 14.353 47.8341 13.4221 48.3144 12.6998C49.0353 11.5976 50.1314 10.9945 51.6729 10.9945C53.2144 10.9945 54.2346 11.6006 54.9644 12.6998C55.4477 13.4258 55.6592 14.3902 55.7389 15.47L47.324 15.4685L47.3612 15.47ZM59.0527 13.0125C58.7578 11.903 58.025 10.7785 57.5484 10.2647C56.7889 9.45297 56.0516 8.87956 55.3144 8.5668C54.25 8.11422 53.105 7.88192 51.9484 7.88393C50.4814 7.88393 49.1484 8.13191 48.0687 8.63606C46.9889 9.14393 46.0804 9.83499 45.3655 10.6988C44.6528 11.5626 44.1144 12.5829 43.7719 13.752C43.43 14.9063 43.258 16.1722 43.258 17.4978C43.258 18.8531 43.436 20.1116 43.7912 21.2509C44.1472 22.3978 44.7221 23.4031 45.4891 24.2371C46.2636 25.0786 47.254 25.7339 48.4455 26.1956C49.6295 26.6536 51.0593 26.8912 52.7125 26.8859C56.1082 26.8748 57.8955 26.1189 58.6253 25.7093C58.7548 25.6364 58.8784 25.5105 58.7243 25.1479L57.9573 22.9957C57.8389 22.6748 57.5142 22.7909 57.5142 22.7909C56.6727 23.1052 55.4812 23.6697 52.6887 23.6622C50.8716 23.6592 49.5163 23.1208 48.6674 22.2771C47.8036 21.4133 47.3716 20.1548 47.3046 18.3675L59.0706 18.3765C59.0706 18.3765 59.3804 18.3735 59.4124 18.0712C59.425 17.9461 59.8153 15.6584 59.0609 13.0148L59.0527 13.0125ZM21.9676 23.1402C21.5066 22.7723 21.4426 22.6822 21.2899 22.4432C21.0569 22.0835 20.9377 21.5719 20.9377 20.9166C20.9377 19.8889 21.2803 19.1442 21.9877 18.6453C21.9803 18.6468 23.0005 17.7666 25.3983 17.7964C26.4656 17.8155 27.5305 17.9063 28.5856 18.0682V23.4075H28.5871C28.5871 23.4075 27.0977 23.7285 25.4147 23.8298C23.0243 23.9735 21.9669 23.1417 21.9743 23.1439L21.9676 23.1402ZM26.6442 14.8742C26.1676 14.8392 25.5495 14.8221 24.8123 14.8221C23.807 14.8221 22.8314 14.9472 21.9229 15.193C21.007 15.4402 20.1804 15.823 19.4729 16.3323C18.7635 16.8384 18.18 17.5009 17.7676 18.2685C17.3513 19.043 17.1391 19.9515 17.1391 20.9791C17.1391 22.0217 17.32 22.9228 17.6775 23.66C18.0278 24.3912 18.555 25.0235 19.2115 25.4993C19.8646 25.9745 20.6711 26.3259 21.602 26.5345C22.5254 26.7452 23.5679 26.8517 24.7147 26.8517C25.9211 26.8517 27.12 26.7504 28.2817 26.5546C29.2712 26.3839 30.2569 26.1922 31.2381 25.9797C31.6298 25.8896 32.0647 25.7712 32.0647 25.7712C32.3552 25.6974 32.3328 25.3869 32.3328 25.3869L32.3261 14.6635C32.3261 12.3103 31.6976 10.5603 30.457 9.48052C29.2208 8.40073 27.4112 7.85712 25.0655 7.85712C24.1867 7.85712 22.7644 7.97626 21.9155 8.1468C21.9155 8.1468 19.3538 8.64424 18.2963 9.47233C18.2963 9.47233 18.064 9.61531 18.1906 9.93925L19.0246 12.1733C19.1281 12.463 19.4104 12.3639 19.4104 12.3639C19.4104 12.3639 19.499 12.3289 19.6032 12.2671C21.8596 11.0384 24.7192 11.0756 24.7192 11.0756C25.9852 11.0756 26.9681 11.3325 27.6234 11.8352C28.2646 12.3274 28.5915 13.0714 28.5915 14.6352V15.1319C27.5862 14.9859 26.6554 14.9018 26.6554 14.9018L26.6442 14.8742ZM121.219 8.81999C121.236 8.78072 121.244 8.73844 121.245 8.69568C121.245 8.65291 121.237 8.61053 121.22 8.57107C121.204 8.5316 121.179 8.49585 121.149 8.46595C121.118 8.43604 121.082 8.4126 121.042 8.39701C120.842 8.32105 119.843 8.11031 119.076 8.06265C117.602 7.97031 116.783 8.21903 116.045 8.54967C115.317 8.87807 114.511 9.40605 114.065 10.0167L114.063 8.58691C114.063 8.39031 113.924 8.23169 113.726 8.23169H110.717C110.522 8.23169 110.381 8.39031 110.381 8.58691V26.0869C110.381 26.1814 110.418 26.2721 110.485 26.3389C110.552 26.4058 110.643 26.4434 110.737 26.4436H113.82C113.915 26.4434 114.005 26.4057 114.072 26.3389C114.139 26.272 114.176 26.1814 114.176 26.0869V17.2997C114.176 16.1231 114.306 14.9539 114.564 14.2167C114.819 13.4876 115.165 12.9061 115.592 12.489C115.999 12.0862 116.497 11.7874 117.044 11.6178C117.557 11.4704 118.089 11.3957 118.623 11.3958C119.237 11.3958 119.911 11.5537 119.911 11.5537C120.137 11.579 120.263 11.4405 120.34 11.2365C120.542 10.6996 121.114 9.0918 121.226 8.77159" fill="gray"/>
<path fill-rule="evenodd" clip-rule="evenodd" d="M92.4241 0.742943C92.043 0.627777 91.6553 0.535769 91.2631 0.467415C90.7356 0.37936 90.2013 0.337994 89.6665 0.343797C87.542 0.343797 85.8672 0.944012 84.6913 2.12954C83.5237 3.30614 82.7291 5.09859 82.3307 7.45699L82.187 8.25305H79.5203C79.5203 8.25305 79.1948 8.23965 79.1263 8.59486L78.6884 11.0374C78.6579 11.2712 78.7585 11.4172 79.0712 11.4157H81.6672L79.0332 26.1179C78.827 27.302 78.5909 28.276 78.3295 29.014C78.0719 29.7423 77.8201 30.2882 77.5104 30.6843C77.2103 31.0678 76.9258 31.3501 76.435 31.5147C76.0299 31.6509 75.5638 31.7135 75.0529 31.7135C74.7684 31.7135 74.3901 31.6658 74.1109 31.61C73.8316 31.5549 73.6864 31.4923 73.4772 31.4044C73.4772 31.4044 73.1726 31.2883 73.0527 31.5936C72.9552 31.8431 72.2633 33.7457 72.1814 33.981C72.098 34.2134 72.2149 34.3966 72.3624 34.4494C72.7079 34.5731 72.9648 34.652 73.4355 34.7629C74.0893 34.9171 74.6404 34.9268 75.1564 34.9268C76.2377 34.9268 77.2229 34.7749 78.0398 34.48C78.862 34.1828 79.5776 33.6653 80.2106 32.9645C80.8949 32.2087 81.3254 31.4171 81.7372 30.3373C82.1445 29.2672 82.4915 27.9387 82.7693 26.3905L85.4159 11.4157H89.2853C89.2853 11.4157 89.6114 11.4276 89.6792 11.0739L90.1171 8.63135C90.1476 8.39752 90.0478 8.25156 89.7336 8.25305H85.9781C85.9967 8.16816 86.1673 6.84709 86.5985 5.60348C86.7824 5.07252 87.1287 4.64433 87.4221 4.35018C87.696 4.07003 88.0334 3.86006 88.4058 3.73805C88.8139 3.61187 89.2394 3.55055 89.6665 3.55635C90.0203 3.55635 90.3673 3.5988 90.6316 3.6539C90.9958 3.73135 91.1373 3.77231 91.2326 3.8006C91.6154 3.91752 91.6667 3.80433 91.742 3.61891L92.64 1.15252C92.7324 0.887413 92.5075 0.775709 92.4241 0.742943ZM39.9434 26.1492C39.9434 26.3458 39.8034 26.5059 39.6069 26.5059H36.4919C36.2945 26.5059 36.1545 26.3458 36.1545 26.1492V1.07731C36.1545 0.881457 36.2945 0.722842 36.4919 0.722842H39.6069C39.8034 0.722842 39.9434 0.881457 39.9434 1.07731V26.1492Z" fill="gray"/>
</g>
<defs>
<clipPath id="clip0_219_23375">
<rect width="153.404" height="35" fill="white" transform="translate(0.67865 0.334961)"/>
</clipPath>
</defs>
</svg>
