<svg width="193" height="49" viewBox="0 0 193 49" fill="none" xmlns="http://www.w3.org/2000/svg">
<path d="M98.8084 32.6288C98.8052 33.2006 98.8041 33.7112 98.7982 34.2217C98.7937 34.6212 98.5848 34.8176 98.1879 34.8271C96.2695 34.8734 96.4861 34.8725 96.4806 33.2888C96.4758 31.9 96.4927 30.511 96.4768 29.1224C96.4462 26.4286 96.3936 23.7349 96.362 21.0411C96.3506 20.0705 96.4302 20.007 97.411 20.0019C97.5335 20.0013 97.6567 20.0108 97.7784 20.0011C98.3679 19.9543 98.7378 20.1451 98.6951 20.8146C98.6891 20.9092 98.735 21.0071 98.7589 21.1131C101.742 19.172 104.48 19.0136 106.881 22.107C106.962 22.0228 107.082 21.9226 107.171 21.7998C109.047 19.2217 112.925 19.3197 114.788 20.6934C115.687 21.3562 116.191 22.2872 116.413 23.3503C116.574 24.1254 116.68 24.9258 116.69 25.7164C116.723 28.4119 116.705 31.1081 116.702 33.804C116.701 34.7568 116.628 34.8264 115.705 34.8351C114.252 34.8488 114.252 34.8488 114.252 33.4002C114.252 30.7859 114.257 28.1717 114.246 25.5575C114.244 25.1322 114.211 24.6968 114.116 24.284C113.801 22.9229 112.977 22.0867 111.899 21.9776C110.125 21.7981 108.942 22.3334 108.41 23.8025C108.047 24.8012 107.827 25.8955 107.785 26.9567C107.693 29.2609 107.759 31.5713 107.754 33.8792C107.752 34.7425 107.664 34.8235 106.805 34.8349C105.305 34.8548 105.305 34.8548 105.304 33.3252C105.304 30.7723 105.322 28.2191 105.294 25.6665C105.282 24.5913 105.025 23.5933 104.302 22.7142C103.398 21.614 101.027 21.7631 100.342 22.6068C99.8899 23.1641 99.4303 23.7912 99.2345 24.463C98.964 25.391 98.8604 26.3878 98.826 27.3602C98.7646 29.094 98.8085 30.8316 98.8084 32.6288Z" fill="gray"/>
<path d="M124.516 40.4017C124.298 40.5813 124.103 40.748 123.878 40.8244C123.694 40.8867 123.473 40.8436 123.269 40.8427C122.289 40.8382 122.22 40.7751 122.22 39.8015C122.218 33.549 122.218 27.2965 122.22 21.044C122.22 20.0702 122.289 20.0075 123.269 20.0023C123.392 20.0017 123.514 20.0011 123.637 20.0031C124.43 20.0163 124.5 20.0861 124.549 20.8756C124.559 21.0333 124.589 21.1899 124.619 21.4105C124.769 21.3339 124.882 21.2996 124.966 21.2301C128.316 18.4551 133.255 19.501 135.007 23.4484C136.17 26.0699 136.127 28.7907 134.997 31.4321C133.767 34.3072 131.035 35.3781 128.154 35.0195C126.955 34.8703 125.862 34.4349 124.957 33.599C124.887 33.5344 124.793 33.4962 124.526 33.334C124.526 35.7649 124.526 38.0574 124.516 40.4017ZM125.04 24.247C124.21 26.1519 124.157 28.1057 124.832 30.0439C125.429 31.7588 126.781 33.0952 129.432 32.877C131.123 32.7378 132.698 31.4549 133.092 29.5877C133.313 28.5438 133.381 27.4377 133.318 26.3716C133.237 25.0228 132.77 23.7547 131.684 22.8521C129.653 21.1651 126.272 21.668 125.04 24.247Z" fill="gray"/>
<path d="M173.311 34.9927C169.717 34.4111 168.057 30.5098 170.241 27.8055C170.617 27.3398 171.201 26.8987 171.766 26.7577C173.023 26.4443 174.323 26.2702 175.616 26.1504C176.628 26.0566 177.656 26.1159 178.676 26.134C179.263 26.1445 179.462 25.8749 179.459 25.3127C179.451 23.2919 178.192 22.0289 176.19 21.9515C174.42 21.883 173.003 22.4927 171.917 23.8848C171.639 24.2418 171.341 24.3217 170.996 23.9785C170.952 23.9355 170.905 23.8961 170.858 23.8572C169.657 22.8668 169.657 22.8668 170.782 21.7529C173.099 19.4603 177.137 19.0584 179.763 20.8601C180.775 21.555 181.364 22.5446 181.619 23.7158C181.779 24.4494 181.884 25.2093 181.894 25.9589C181.926 28.6128 181.909 31.2673 181.904 33.9217C181.903 34.7205 181.8 34.8173 181.036 34.8345C179.7 34.8645 179.693 34.8569 179.571 33.5305C179.562 33.4334 179.529 33.3386 179.474 33.1014C177.727 34.8366 175.655 35.3002 173.311 34.9927ZM172.815 32.481C173.593 32.9852 174.464 33.0109 175.352 33.0004C177.863 32.9707 179.274 31.1017 179.441 28.7547C179.468 28.3688 179.3 28.0931 178.887 28.1117C177.098 28.1921 175.306 28.2486 173.522 28.4056C172.623 28.4848 171.949 29.0222 171.787 29.9693C171.619 30.9567 171.822 31.8438 172.815 32.481Z" fill="gray"/>
<path d="M88.7516 34.4703C85.9263 35.5192 83.2858 35.3732 80.948 33.3987C79.7665 32.4009 79.1785 31.008 78.8969 29.5145C78.4812 27.3091 78.6858 25.1649 79.7145 23.1351C80.9215 20.7532 83.3999 19.4558 86.1125 19.7883C88.9155 20.1318 90.9592 21.9151 91.5375 24.6013C91.7121 25.4123 91.7787 26.2563 91.8004 27.0877C91.8222 27.9214 91.6094 28.0893 90.784 28.0907C87.9263 28.0955 85.0686 28.0915 82.2109 28.0945C81.1863 28.0956 81.0496 28.2956 81.2495 29.3072C82.0717 33.4666 86.7756 33.6651 89.0688 31.6363C89.7905 30.9978 89.8429 30.9957 90.5606 31.6751C91.4943 32.5589 91.5073 32.5956 90.4433 33.4044C89.9267 33.797 89.3454 34.1044 88.7516 34.4703ZM83.5788 22.2242C82.3136 22.871 81.5676 23.9152 81.256 25.2835C81.1085 25.9314 81.2444 26.1205 81.9057 26.1237C84.1911 26.1347 86.4766 26.1346 88.762 26.1231C89.3914 26.12 89.512 25.9464 89.4136 25.3259C88.9655 22.5014 86.3103 21.0507 83.5788 22.2242Z" fill="gray"/>
<path d="M151.112 21.5033C154.061 24.0843 154.303 29.2511 152.025 32.3571C149.639 35.6097 144.496 35.9839 141.565 33.1913C138.697 30.459 138.448 24.815 141.427 21.7219C143.87 19.1851 148.423 19.0836 151.112 21.5033ZM147.219 32.8484C148.764 32.6318 149.872 31.7688 150.509 30.3942C151.433 28.401 151.465 26.337 150.479 24.3609C149.703 22.8044 148.388 21.9721 146.593 21.9348C144.859 21.8987 143.435 22.4957 142.558 24.0018C141.351 26.0726 141.384 28.2682 142.342 30.4156C142.887 31.6385 143.868 32.4988 145.221 32.7698C145.832 32.892 146.478 32.8347 147.219 32.8484Z" fill="gray"/>
<path d="M71.5985 33.3608C71.5969 34.8454 71.5969 34.8454 70.1854 34.8355C69.215 34.8288 69.1487 34.7668 69.1483 33.7817C69.1464 28.4288 69.1474 23.0758 69.1471 17.7228C69.147 16.324 69.1465 16.3239 67.7188 16.3235C66.1256 16.323 64.5324 16.3275 62.9392 16.3204C62.1492 16.3168 62.056 16.2156 62.0399 15.4381C62.0099 13.995 62.0099 13.9945 63.4224 13.9944C68.1612 13.9943 72.9 13.9935 77.6387 13.9954C78.65 13.9958 78.7032 14.0545 78.7069 15.0794C78.707 15.1202 78.707 15.1611 78.7069 15.202C78.7049 16.2706 78.6586 16.321 77.6137 16.3226C75.9592 16.3252 74.3047 16.3214 72.6502 16.3247C71.6672 16.3266 71.6002 16.391 71.5999 17.364C71.5977 22.6762 71.5987 27.9883 71.5985 33.3608Z" fill="gray"/>
<path d="M189.631 15.5903C189.631 20.9784 189.63 26.3058 189.631 31.6331C189.632 32.7018 189.678 32.7461 190.725 32.7516C191.215 32.7541 191.704 32.7562 192.194 32.7609C192.589 32.7646 192.796 32.961 192.809 33.3616C192.864 35.122 192.801 34.9574 191.406 34.9584C190.794 34.9589 190.181 34.9723 189.57 34.9494C188.186 34.8974 187.428 34.119 187.427 32.742C187.423 26.8024 187.42 20.8627 187.441 14.9231C187.442 14.6286 187.641 14.1031 187.799 14.0829C188.342 14.0133 188.91 14.1048 189.462 14.1795C189.533 14.1892 189.601 14.458 189.615 14.6116C189.641 14.9158 189.628 15.2233 189.631 15.5903Z" fill="gray"/>
<path d="M158.253 23.4341C158.255 22.4948 158.265 21.6167 158.254 20.7389C158.248 20.2221 158.482 19.9813 158.995 20.0047C159.076 20.0084 159.158 20.003 159.24 20.0022C160.451 19.9902 160.45 19.9902 160.605 21.1764C160.612 21.2338 160.648 21.2876 160.709 21.4405C160.899 21.2848 161.067 21.1622 161.217 21.0203C162.616 19.6968 165.231 19.3401 166.952 20.225C167.306 20.4069 167.393 20.6177 167.178 20.9531C167.079 21.1077 166.994 21.2713 166.898 21.4277C166.338 22.3352 166.338 22.3349 165.288 22.0728C163.341 21.587 161.588 22.4928 160.959 24.4002C160.727 25.1045 160.613 25.8759 160.599 26.6195C160.555 29.0281 160.584 31.4381 160.58 33.8475C160.579 34.7491 160.496 34.8259 159.602 34.8351C158.254 34.849 158.254 34.849 158.254 33.4802C158.253 30.1519 158.253 26.8237 158.253 23.4341Z" fill="gray"/>
<path d="M17.7903 29.5685C17.7497 26.9194 17.6965 24.3277 17.6791 21.7357C17.6741 20.983 17.7692 20.2294 17.8232 19.4765C17.8599 18.9635 18.0763 18.6352 18.6516 18.6275C21.6065 18.5878 24.5685 18.3914 27.5139 18.5366C30.2551 18.6718 32.9935 19.0779 35.7054 19.5313C38.0835 19.9289 40.4101 20.6227 42.5378 21.7985C43.4007 22.2753 44.1997 22.908 44.9276 23.5786C45.7357 24.323 45.6764 25.3196 44.9292 26.1415C43.5877 27.6173 41.8075 28.3407 39.9984 28.9981C37.1415 30.0362 34.173 30.5819 31.1613 30.9143C30.3555 31.0032 30.2551 31.1003 30.1546 31.9187C29.7128 35.5177 29.0485 39.0627 27.5838 42.4113C27.0644 43.5986 26.4379 44.7107 25.4738 45.6081C24.5124 46.5032 23.5622 46.61 22.6948 45.6241C21.8854 44.704 21.184 43.6394 20.6529 42.5337C19.3604 39.8429 18.7206 36.9445 18.2936 34.0041C18.0826 32.551 17.9561 31.0856 17.7903 29.5685Z" fill="gray"/>
<path d="M12.7982 30.2714C10.5654 29.807 8.4003 29.2697 6.39134 28.2906C5.37532 27.7954 4.37365 27.1936 3.52009 26.4601C2.24519 25.3644 2.31893 24.0673 3.69802 23.069C4.73046 22.3216 5.85471 21.6579 7.02173 21.1488C9.42648 20.0997 11.9833 19.5386 14.5671 19.1166C15.2205 19.0098 15.2914 19.1381 15.2813 19.7868C15.2364 22.6591 15.2174 25.5318 15.2023 28.4045C15.1993 28.9745 15.2501 29.5451 15.2839 30.115C15.3087 30.5317 15.0885 30.6765 14.7162 30.6167C14.092 30.5163 13.4713 30.3942 12.7982 30.2714Z" fill="gray"/>
<path d="M28.0366 8.41267C28.6188 10.6049 29.2147 12.7452 29.7361 14.9034C30.0083 16.0299 29.8323 16.0799 28.6952 16.0361C26.2956 15.9437 23.892 15.9437 21.49 15.9355C20.6561 15.9326 19.8219 16.0175 18.9879 16.0624C18.4967 16.0888 18.2545 15.8927 18.3406 15.3695C18.8933 12.0132 19.6395 8.71229 21.3869 5.74263C21.7921 5.05388 22.3392 4.41268 22.9386 3.88282C23.7743 3.14423 24.5549 3.24356 25.3927 4.00577C26.5576 5.06553 27.2293 6.43359 27.8152 7.85653C27.8851 8.02632 27.9514 8.19761 28.0366 8.41267Z" fill="gray"/>
</svg>
