<svg width="146" height="33" viewBox="0 0 146 33" fill="none" xmlns="http://www.w3.org/2000/svg">
<path d="M33.3537 0.916992L24.6369 25.0784L20.9637 13.8763H15.045L21.8388 31.5946H28.1375L39.9978 0.916992H33.3537ZM10.8536 25.0784L6.68521 13.8763H0.708984L7.49126 31.6574H14.4002L17.1292 24.0847L14.1353 16.1878L10.8536 25.0784ZM82.672 21.8359L92.2409 13.8344H84.2726L78.1236 19.0642V5.87478H72.4928V31.5946H78.1812V24.5135L85.804 31.5946H93.4384L82.672 21.8359ZM70.5238 19.1688C69.6879 18.7852 68.7505 18.6221 67.8178 18.6981C67.2201 18.7016 66.6304 18.8232 66.0895 19.0544C65.5487 19.2856 65.0697 19.6208 64.6857 20.0369C63.9411 21.1481 63.5951 22.4419 63.6954 23.7395V31.5946H57.7883V13.8867H63.707V16.4179H63.7876C64.1929 15.5569 64.8718 14.8252 65.7374 14.3165C66.6031 13.8079 67.6161 13.5453 68.6468 13.5625C69.3212 13.5385 69.9921 13.6604 70.6044 13.9181L70.5238 19.1688ZM45.0989 32.1071C38.8924 32.1071 34.2058 28.5614 34.2058 22.8296C34.2058 17.0978 38.9039 13.5625 45.0989 13.5625C51.2939 13.5625 55.9805 17.0978 55.9805 22.8819C55.9805 28.666 51.3054 32.1071 45.0989 32.1071ZM45.0989 18.1228C42.3123 18.1228 40.6426 20.1101 40.6426 22.7459C40.6426 25.3817 42.2777 27.3794 45.0989 27.3794C47.92 27.3794 49.5552 25.3817 49.5552 22.7459C49.5552 20.1101 47.92 18.0914 45.0989 18.0914V18.1228ZM142.975 31.6051H136.93L136.815 29.7956C136.119 30.5138 135.261 31.088 134.299 31.4796C133.338 31.8711 132.295 32.0708 131.242 32.0653C127.787 32.0653 124.126 30.3813 124.126 26.3962C124.126 22.4112 128.133 21.0933 131.76 20.9469L136.688 20.7691V20.3716C136.688 18.4889 135.214 17.5057 132.67 17.5057C130.55 17.5736 128.483 18.1239 126.659 19.106L124.989 15.3406C127.591 14.2005 130.437 13.5935 133.326 13.5625C136.988 13.5625 139.083 14.326 140.638 15.6544C142.192 16.9827 142.941 18.6981 142.941 21.6999L142.975 31.6051ZM136.654 23.8337L133.51 24.0115C131.553 24.0847 130.401 24.8587 130.401 26.1766C130.401 27.4945 131.633 28.3731 133.395 28.3731C134.042 28.3684 134.677 28.2177 135.244 27.9348C135.811 27.6518 136.291 27.2453 136.642 26.7519L136.654 23.8337ZM123.987 13.8658L115.927 31.5737H110.1L102.098 13.8658H108.696L113.129 25.0784L117.516 13.8553L123.987 13.8658ZM100.416 31.5946H94.0717V13.8867H100.416V31.5946ZM94.0717 12.4224V5.87478H101.844L94.0717 12.4224ZM143.586 13.8763C143.203 13.8763 142.829 13.7732 142.511 13.5801C142.193 13.387 141.945 13.1126 141.799 12.7915C141.652 12.4704 141.614 12.1171 141.688 11.7763C141.763 11.4354 141.947 11.1223 142.218 10.8766C142.488 10.6308 142.833 10.4635 143.208 10.3957C143.584 10.3279 143.973 10.3626 144.326 10.4956C144.68 10.6286 144.982 10.8539 145.194 11.1428C145.407 11.4318 145.52 11.7715 145.52 12.1191C145.513 12.3526 145.454 12.5825 145.348 12.7952C145.242 13.0079 145.09 13.1993 144.901 13.358C144.712 13.5168 144.491 13.6398 144.249 13.7198C144.007 13.7998 143.751 13.8352 143.494 13.824L143.586 13.8763ZM143.586 10.6338C143.26 10.6318 142.941 10.7175 142.669 10.8801C142.397 11.0427 142.184 11.275 142.057 11.5475C141.931 11.82 141.896 12.1205 141.957 12.411C142.018 12.7016 142.173 12.9691 142.402 13.1797C142.63 13.3903 142.923 13.5346 143.242 13.5944C143.561 13.6541 143.892 13.6266 144.194 13.5153C144.495 13.404 144.754 13.214 144.937 12.9692C145.12 12.7244 145.219 12.4358 145.221 12.14C145.224 11.9477 145.185 11.7567 145.107 11.578C145.029 11.3993 144.913 11.2363 144.765 11.0984C144.617 10.9605 144.441 10.8503 144.247 10.7742C144.053 10.6981 143.844 10.6575 143.632 10.6548L143.586 10.6338ZM144.507 13.1546H143.966L143.494 12.3178H143.263V13.1546H142.803V11.0627H143.666C144.161 11.0627 144.472 11.3032 144.472 11.6798C144.485 11.8112 144.445 11.9424 144.361 12.0498C144.277 12.1572 144.153 12.2336 144.012 12.2655L144.507 13.1546ZM143.494 11.4706H143.229V12.0354H143.494C143.701 12.0354 143.897 12.0354 143.897 11.7635C143.897 11.4915 143.747 11.4392 143.517 11.4392L143.494 11.4706Z" fill="gray"/>
</svg>
